<?xml version="1.0" standalone="no"?>
<!DOCTYPE svg PUBLIC "-//W3C//DTD SVG 20010904//EN"
 "http://www.w3.org/TR/2001/REC-SVG-20010904/DTD/svg10.dtd">
<svg version="1.0" xmlns="http://www.w3.org/2000/svg"
 width="2733.000000pt" height="2733.000000pt" viewBox="0 0 2733.000000 2733.000000"
 preserveAspectRatio="xMidYMid meet">
<metadata>
Created by potrace 1.14, written by Peter Selinger 2001-2017
</metadata>
<g transform="translate(0.000000,2733.000000) scale(0.100000,-0.100000)"
fill="#000000" stroke="none">
<path d="M0 13670 l0 -7690 3218 2 c1769 1 3161 5 3092 9 -123 7 -150 10 -180
22 -8 4 -103 36 -210 73 -402 136 -755 288 -1145 493 -644 338 -1314 839
-1881 1405 -355 356 -617 672 -1009 1217 -33 46 -82 113 -110 149 -287 376
-315 422 -315 510 0 22 9 64 21 95 103 275 596 667 1587 1259 116 70 212 128
212 129 0 1 -51 54 -112 118 -244 250 -380 497 -433 787 -23 125 -16 396 13
527 96 426 274 689 603 887 88 54 192 106 274 138 33 13 65 27 70 30 13 10
270 93 370 120 89 24 316 77 385 90 116 21 354 59 440 69 52 7 129 16 170 22
148 19 452 40 810 55 728 32 1756 -6 2920 -106 262 -22 324 -24 315 -9 -5 8
-25 39 -45 69 -51 75 -116 206 -131 260 -18 69 -5 117 45 165 23 22 62 50 86
62 103 50 203 93 330 142 221 86 432 165 481 182 36 12 36 12 31 61 -10 101
43 174 166 233 113 54 500 193 742 265 25 7 49 16 53 20 4 4 0 29 -10 56 -12
34 -17 80 -18 149 0 107 8 132 63 197 15 18 34 51 41 72 8 22 29 64 49 95 19
30 45 79 57 110 l23 55 -38 61 c-121 190 -155 322 -109 420 27 57 159 195 289
302 114 94 343 257 493 352 179 113 179 113 217 142 109 83 688 382 1035 534
162 71 650 262 830 325 89 31 145 51 248 90 52 19 178 63 362 127 55 19 109
38 120 43 11 5 61 23 110 40 50 17 99 35 110 40 11 5 59 22 108 39 162 57 262
93 352 126 102 39 694 234 800 265 179 52 374 102 525 134 141 30 218 44 395
71 83 13 339 35 408 35 48 0 89 5 105 14 395 205 721 286 1102 273 193 -7 321
-24 480 -63 124 -31 317 -97 449 -154 52 -22 101 -40 109 -40 20 0 275 -133
379 -198 45 -27 83 -49 85 -47 10 10 604 138 838 181 61 11 108 25 130 40 19
13 39 24 44 24 6 0 47 16 93 35 122 53 252 75 436 75 99 -1 173 -6 212 -16 33
-8 110 -23 172 -34 61 -11 140 -29 175 -40 35 -11 71 -20 80 -20 24 0 217 -84
318 -138 324 -173 670 -446 1006 -792 292 -301 608 -706 804 -1030 18 -30 55
-91 82 -135 209 -336 397 -739 523 -1120 62 -186 146 -480 144 -507 0 -15 -29
68 -34 99 -3 22 -21 84 -32 113 -4 8 -5 19 -4 23 1 5 -5 23 -12 40 -20 47 -47
133 -47 148 0 8 -11 41 -24 74 -29 72 -38 96 -41 111 -3 11 -21 55 -53 124 -8
19 -17 41 -18 48 -1 8 -11 23 -21 35 -12 14 -13 18 -3 12 11 -6 10 -3 -2 12
-10 11 -18 23 -18 27 0 4 -7 15 -16 23 -8 9 -13 24 -11 35 3 10 1 16 -4 12 -5
-3 -9 -13 -9 -22 -1 -14 -4 -13 -20 7 -19 22 -19 48 0 36 4 -3 5 5 2 17 -5 17
-7 19 -10 7 -2 -14 -8 -12 -30 10 -15 14 -26 33 -23 41 4 13 2 13 -11 2 -25
-20 -9 -69 18 -58 8 3 14 -1 14 -9 0 -9 -6 -12 -15 -9 -22 9 -18 -5 7 -25 15
-13 22 -31 24 -60 1 -22 -2 -41 -8 -41 -5 0 -7 -4 -4 -8 2 -4 -11 -8 -29 -8
-26 0 -32 3 -24 12 8 10 5 10 -14 1 -14 -6 -23 -15 -21 -18 7 -12 -23 -18 -35
-6 -8 8 -11 8 -11 -1 0 -7 -12 -12 -27 -12 -21 0 -24 3 -13 9 8 6 18 7 24 4 5
-4 6 -1 1 6 -5 9 -23 11 -62 6 -45 -5 -54 -4 -47 7 5 8 -2 6 -19 -5 -15 -10
-32 -15 -37 -12 -6 3 -10 1 -10 -4 0 -6 5 -11 11 -11 6 0 4 -7 -4 -15 -10 -10
-30 -13 -61 -11 -27 3 -44 0 -40 -5 3 -5 10 -6 16 -3 7 5 8 2 3 -5 -4 -7 -16
-11 -26 -8 -12 3 -19 0 -19 -10 0 -11 -8 -13 -32 -9 -23 4 -27 3 -13 -3 19 -8
19 -8 -5 -17 -14 -4 -28 -7 -32 -6 -5 1 -8 -3 -8 -8 0 -6 -7 -10 -15 -10 -8 0
-15 -4 -15 -9 0 -9 -27 -20 -70 -28 -14 -2 -26 -8 -28 -14 -2 -5 -10 -9 -17
-9 -7 0 -26 -7 -41 -15 -16 -8 -36 -15 -44 -15 -8 0 1 8 20 17 46 22 47 22 30
34 -12 9 -11 10 4 5 20 -7 107 21 103 33 -1 4 12 19 28 34 17 14 24 27 18 27
-7 0 -13 -5 -13 -10 0 -6 -6 -10 -12 -9 -7 1 -26 -3 -41 -9 -16 -7 -40 -12
-53 -12 -14 0 -22 -4 -19 -10 3 -5 -3 -10 -14 -10 -11 0 -23 -4 -26 -10 -3 -5
-17 -10 -30 -10 -13 0 -27 -4 -30 -10 -3 -5 -15 -10 -26 -10 -10 0 -19 -4 -19
-9 0 -5 -9 -13 -20 -16 -28 -9 -25 -18 10 -39 l31 -18 -25 -19 c-13 -10 -29
-19 -35 -19 -6 0 -11 -4 -11 -9 0 -13 -47 -60 -54 -53 -4 3 -9 -4 -13 -16 -3
-12 -10 -22 -15 -22 -5 0 -6 -4 -3 -10 3 -5 1 -10 -4 -10 -6 0 -11 6 -11 13 0
6 -8 -3 -17 -21 -10 -21 -21 -31 -30 -28 -8 3 -11 1 -8 -5 4 -5 2 -16 -4 -23
-8 -10 -7 -17 4 -26 17 -14 50 -6 40 10 -4 6 -11 7 -17 4 -7 -5 -8 -2 -3 5 5
9 10 10 18 2 17 -17 30 -13 24 8 -3 14 -1 18 10 14 9 -4 11 -12 7 -22 -4 -9
-8 -26 -8 -38 -1 -12 -5 -21 -11 -20 -5 1 -10 -5 -10 -13 -1 -8 -6 -24 -13
-35 -11 -18 -12 -18 -6 6 3 15 1 30 -5 33 -7 4 -10 0 -9 -11 0 -10 0 -34 -1
-53 -1 -26 -4 -31 -10 -20 -6 8 -7 19 -4 25 4 5 3 7 -2 3 -4 -4 -15 -2 -24 5
-12 9 -11 7 2 -13 19 -27 22 -44 7 -35 -5 3 -10 1 -10 -4 0 -6 -15 -11 -32
-12 -18 0 -27 -3 -21 -6 10 -3 10 -10 2 -24 -8 -16 -7 -19 3 -17 8 2 13 -1 13
-7 0 -5 -6 -9 -12 -9 -8 1 -11 -7 -9 -22 3 -15 1 -22 -6 -18 -7 4 -8 -4 -3
-26 5 -25 4 -31 -5 -25 -9 5 -11 4 -6 -3 4 -7 8 -72 8 -146 1 -124 2 -133 20
-128 22 5 22 6 2 37 -10 15 -12 25 -5 25 15 0 14 27 -1 33 -8 3 -6 6 5 6 18 1
20 7 17 59 -1 17 3 32 9 32 6 0 12 -19 13 -42 l1 -43 4 40 c10 92 20 46 22
-91 1 -111 -2 -149 -11 -156 -9 -5 -8 -8 6 -8 18 0 17 -1 -3 -19 -13 -12 -18
-22 -11 -26 5 -3 10 -26 10 -51 0 -25 5 -44 11 -44 6 0 3 -7 -5 -16 -12 -12
-14 -28 -10 -77 4 -34 6 -74 5 -89 -1 -16 2 -28 7 -28 5 0 7 44 5 98 -2 77 -1
92 8 72 6 -14 13 -83 14 -155 2 -71 4 -130 5 -130 0 0 2 -25 4 -55 2 -30 0
-46 -4 -36 -4 11 -9 15 -13 9 -3 -5 0 -18 7 -29 9 -12 11 -26 5 -40 -5 -15 -4
-24 3 -26 6 -2 14 -44 19 -93 4 -50 8 -92 8 -95 1 -3 6 2 11 10 8 12 10 11 10
-8 0 -12 -7 -25 -15 -28 -8 -4 -15 -10 -15 -16 0 -5 5 -6 10 -3 6 3 10 -3 10
-15 0 -12 5 -18 10 -15 6 3 10 2 10 -4 0 -13 -35 -32 -44 -24 -3 3 -6 -1 -6
-10 0 -10 5 -17 10 -17 6 0 10 5 10 10 0 6 5 10 10 10 6 0 10 -11 10 -25 0
-14 -4 -25 -10 -25 -5 0 -10 5 -10 10 0 6 -5 10 -11 10 -6 0 -8 -8 -6 -17 3
-10 16 -58 30 -108 36 -127 48 -176 53 -205 3 -14 8 -34 11 -45 6 -19 13 -57
15 -82 1 -7 5 -13 9 -13 4 0 7 -9 6 -20 -1 -11 -7 -20 -14 -20 -7 0 -14 9 -14
20 -2 28 -3 33 -12 48 -5 6 -5 18 -1 25 4 6 3 9 -1 4 -9 -8 -36 55 -38 90 -1
12 -5 19 -10 16 -6 -4 -8 5 -5 21 3 14 1 26 -5 26 -6 0 -7 3 -4 7 4 3 3 11 -2
17 -5 6 -17 38 -26 71 -9 33 -20 69 -25 80 -5 11 -18 52 -30 90 -31 101 -141
401 -198 540 -27 66 -66 161 -87 210 -20 50 -41 94 -45 99 -8 8 14 -54 80
-224 96 -248 200 -555 200 -590 0 -9 3 -20 7 -24 4 -3 15 -37 25 -74 43 -163
60 -229 64 -252 3 -14 11 -45 19 -70 8 -25 28 -99 44 -165 17 -66 44 -172 61
-235 131 -496 182 -739 229 -1085 53 -394 71 -673 72 -1127 0 -312 2 -358 15
-348 8 7 14 18 14 25 0 7 14 26 30 43 17 18 30 38 30 46 0 7 7 19 15 26 8 7
15 20 15 29 0 9 11 29 25 45 14 16 25 33 25 37 0 5 14 24 31 44 17 19 28 35
23 35 -4 0 0 8 9 18 10 10 14 22 10 27 -5 4 -2 5 5 1 8 -5 12 1 12 17 0 14 7
30 15 37 8 7 15 21 15 31 0 11 4 19 10 19 5 0 9 3 8 8 -3 12 25 62 34 62 5 0
7 4 4 9 -3 5 1 14 9 21 8 7 15 19 15 26 0 8 5 14 11 14 5 0 7 5 4 10 -3 6 -2
10 3 10 5 0 14 18 21 40 6 21 17 45 24 52 7 7 19 29 27 48 8 19 27 57 43 84
16 27 29 58 30 68 1 10 5 18 9 18 4 0 8 10 8 23 0 13 8 32 18 43 9 10 23 37
31 59 7 22 22 52 32 67 11 14 19 35 19 46 0 12 4 23 9 26 4 3 14 26 21 51 7
24 19 50 26 56 8 6 14 19 14 28 0 19 21 79 34 101 6 8 11 25 12 39 2 13 7 27
12 30 5 3 19 35 31 70 22 65 39 102 50 111 18 15 54 117 46 129 -3 6 -1 11 4
11 6 0 10 3 10 8 -1 4 -1 14 1 22 1 11 4 9 10 -5 8 -17 9 -18 11 -2 2 24 3 28
21 69 22 49 116 326 122 358 3 14 9 40 15 59 10 34 51 237 70 346 l10 60 -5
-60 c-19 -229 -130 -627 -282 -1005 -83 -206 -260 -614 -340 -785 -117 -251
-376 -731 -513 -950 -40 -65 -44 -76 -47 -152 -2 -46 -7 -81 -11 -79 -3 2 -6
-26 -7 -62 -1 -106 -26 -314 -37 -300 -5 8 -7 3 -3 -14 9 -38 -5 -149 -17
-141 -6 3 -7 1 -3 -5 10 -17 -5 -123 -17 -115 -6 4 -8 0 -4 -11 10 -25 -4
-107 -16 -99 -6 4 -8 0 -4 -11 9 -23 -3 -107 -15 -100 -5 3 -6 -6 -2 -22 5
-18 3 -25 -4 -20 -13 8 -25 -25 -38 -109 -4 -23 -2 -26 5 -15 9 13 11 13 11
-2 0 -10 -7 -18 -15 -18 -8 0 -15 -8 -15 -17 0 -10 -7 -36 -14 -58 -14 -40
-11 -68 5 -44 6 9 6 0 2 -21 -10 -56 -23 -80 -16 -31 9 65 -13 44 -28 -27 -7
-31 -13 -60 -13 -64 -1 -3 -4 -10 -8 -14 -5 -4 -8 -17 -8 -28 0 -20 -34 -135
-50 -166 -4 -9 -11 -31 -14 -50 -4 -19 -16 -54 -27 -77 -10 -24 -19 -54 -19
-67 0 -14 -4 -28 -10 -31 -5 -3 -14 -25 -20 -48 -6 -23 -18 -55 -26 -70 -9
-16 -13 -31 -10 -34 3 -3 -2 -22 -10 -42 -9 -20 -24 -58 -34 -86 -9 -27 -31
-80 -49 -117 -17 -37 -40 -90 -51 -119 -12 -29 -32 -75 -45 -103 -13 -28 -33
-73 -45 -101 -33 -75 -205 -420 -249 -500 -101 -183 -134 -241 -147 -256 -8
-8 -14 -18 -14 -21 0 -3 -25 -46 -55 -96 -30 -50 -55 -95 -55 -100 0 -5 -9
-17 -20 -27 -11 -10 -20 -22 -20 -26 0 -5 -42 -69 -93 -144 -50 -75 -97 -144
-102 -154 -6 -11 -16 -25 -23 -33 -6 -8 -8 -19 -4 -23 4 -5 1 -5 -5 -1 -7 4
-13 3 -13 -2 0 -4 -35 -54 -77 -110 -43 -56 -100 -132 -126 -169 -26 -38 -63
-85 -82 -107 -19 -21 -35 -42 -35 -46 0 -4 -29 -37 -65 -74 -36 -36 -65 -70
-65 -75 0 -4 -14 -22 -30 -40 -17 -17 -28 -31 -25 -31 3 0 -23 -28 -57 -63
-35 -34 -90 -93 -123 -130 -32 -37 -63 -67 -68 -67 -14 0 5 25 84 112 42 46
105 117 140 158 35 41 66 77 69 80 3 3 21 25 40 50 19 25 48 60 64 78 17 18
46 54 66 80 19 26 60 79 91 117 30 39 70 91 87 117 18 25 38 52 45 60 6 7 30
40 52 73 22 33 43 62 46 65 6 5 148 217 231 345 160 247 377 648 503 930 10
22 32 72 50 110 27 58 72 165 115 270 65 162 160 453 235 720 27 96 94 381
110 470 9 50 19 101 22 115 10 41 12 53 17 95 3 22 8 51 10 65 8 41 39 272 41
309 2 18 8 77 14 130 52 473 45 1075 -20 1646 -5 50 -12 110 -15 135 -4 42
-29 210 -38 255 -2 11 -7 40 -11 65 -10 68 -31 170 -65 320 -17 74 -33 151
-36 170 -3 19 -16 69 -29 110 -12 41 -35 120 -50 175 -32 119 -135 428 -144
435 -3 3 -8 14 -9 25 -2 11 -15 48 -28 82 -13 35 -36 93 -50 130 -14 38 -34
86 -44 108 -10 22 -48 110 -85 195 -121 279 -367 777 -453 915 -14 22 -39 65
-55 95 -170 311 -528 841 -776 1145 -69 85 -297 356 -328 390 -211 234 -452
485 -633 660 -154 149 -437 388 -550 466 -88 61 -228 120 -262 111 -5 -1 -8 2
-8 6 0 5 -12 9 -27 10 -16 1 -48 5 -73 9 -44 9 -130 -3 -146 -19 -4 -5 -15 -8
-24 -8 -9 0 -25 -9 -35 -20 -10 -11 -23 -20 -30 -20 -13 0 -49 -40 -52 -58 -2
-6 12 -18 30 -26 17 -8 109 -49 202 -91 256 -114 650 -338 736 -417 14 -13 43
-36 65 -53 198 -150 508 -464 690 -700 133 -173 216 -292 331 -478 10 -16 34
-54 54 -85 20 -32 49 -82 65 -112 16 -30 31 -57 34 -60 21 -21 50 -73 50 -90
0 -14 4 -19 12 -14 7 5 9 0 6 -14 -3 -12 -1 -20 4 -19 6 1 12 -6 13 -15 2 -10
10 -25 19 -33 15 -15 27 -39 57 -112 8 -18 17 -33 21 -33 5 0 8 -4 8 -9 0 -16
134 -295 180 -376 12 -22 29 -57 36 -77 15 -43 41 -98 275 -573 290 -589 436
-954 582 -1455 186 -632 282 -1327 271 -1945 -9 -449 -45 -839 -113 -1200 -11
-55 -22 -118 -26 -140 -15 -91 -72 -323 -127 -515 -17 -58 -36 -127 -43 -155
-8 -27 -19 -63 -26 -80 -7 -16 -13 -34 -15 -40 -1 -5 -9 -29 -18 -52 -8 -24
-13 -43 -9 -43 3 0 -1 -10 -9 -22 -12 -19 -23 -50 -43 -118 -2 -6 -23 -58 -32
-80 -3 -8 -7 -17 -7 -20 -1 -3 -7 -15 -14 -26 -6 -12 -9 -24 -6 -27 3 -3 -1
-18 -9 -34 -19 -36 -65 -144 -69 -163 -2 -8 -9 -21 -15 -28 -7 -7 -13 -22 -13
-32 0 -11 -14 -42 -31 -71 -16 -28 -33 -65 -36 -80 -3 -16 -10 -29 -15 -29 -5
0 -6 -4 -3 -10 3 -5 2 -10 -3 -10 -5 0 -15 -18 -22 -40 -7 -22 -17 -40 -22
-40 -4 0 -7 -3 -6 -7 3 -8 -67 -149 -83 -168 -8 -11 -72 -136 -74 -145 -3 -18
-50 -96 -61 -103 -8 -4 -14 -13 -14 -19 0 -5 -13 -29 -28 -52 -16 -23 -35 -56
-43 -74 -7 -18 -16 -32 -20 -32 -3 0 -11 -16 -19 -35 -8 -19 -17 -35 -22 -35
-4 0 -8 -7 -8 -15 0 -8 -4 -15 -10 -15 -5 0 -10 -5 -10 -11 0 -6 -13 -28 -28
-48 -15 -20 -34 -48 -41 -64 -8 -15 -18 -27 -23 -27 -4 0 -8 -5 -8 -11 0 -6
-14 -29 -31 -50 -17 -21 -28 -39 -24 -39 3 0 -6 -12 -20 -27 -14 -15 -25 -31
-25 -35 0 -4 -11 -24 -25 -44 -14 -21 -24 -43 -21 -50 3 -8 -2 -11 -15 -9 -12
2 -19 -2 -19 -11 0 -8 -4 -14 -10 -14 -5 0 -10 -7 -10 -16 0 -9 5 -12 13 -8 7
4 9 3 4 -2 -5 -5 -14 -9 -19 -9 -6 0 -13 -6 -16 -14 -3 -8 0 -11 7 -7 17 11
13 0 -6 -15 -11 -10 -14 -10 -9 -1 4 6 3 12 -3 12 -5 0 -13 -9 -16 -20 -3 -11
-11 -20 -16 -20 -10 0 -34 -49 -30 -63 1 -5 -3 -6 -8 -3 -8 5 -23 -17 -25 -37
-1 -5 -12 -15 -26 -22 -22 -13 -23 -14 -5 -15 17 -1 16 -3 -5 -11 -24 -9 -66
-65 -62 -82 2 -5 -2 -6 -7 -3 -11 7 -86 -92 -78 -101 9 -8 -13 -44 -23 -38
-13 8 -40 -24 -33 -40 4 -11 1 -13 -13 -8 -14 5 -16 3 -11 -11 4 -9 3 -15 -2
-12 -11 7 -72 -64 -65 -76 3 -4 2 -8 -3 -7 -21 4 -33 -2 -33 -16 0 -8 -5 -15
-11 -15 -6 0 -9 -7 -5 -15 3 -8 0 -14 -7 -12 -7 1 -12 -6 -12 -15 0 -10 -6
-23 -13 -30 -11 -11 -12 -9 -6 7 l7 20 -20 -20 c-11 -11 -16 -21 -12 -23 5 -2
9 -8 9 -14 0 -6 -7 -7 -16 -4 -11 4 -15 2 -11 -8 3 -8 -16 -34 -46 -62 -28
-27 -41 -37 -28 -22 14 16 20 28 15 28 -5 0 -16 -10 -24 -23 -14 -21 -16 -27
-19 -47 0 -5 -16 -16 -34 -25 -18 -8 -38 -24 -45 -36 -8 -12 -9 -18 -3 -14 6
3 11 1 11 -4 0 -6 -4 -11 -9 -11 -11 0 -78 -61 -80 -72 0 -5 -1 -11 -1 -15 0
-5 -5 -1 -11 7 -9 12 -10 11 -6 -6 4 -18 -1 -21 -29 -22 -19 -1 -34 1 -34 4 0
6 98 117 201 229 155 168 488 575 597 730 21 29 71 99 112 156 173 240 352
525 520 824 101 179 350 712 350 748 0 7 6 21 14 32 18 27 159 429 172 494 3
13 9 32 14 42 18 34 108 390 150 594 17 83 33 159 35 170 3 11 12 65 20 120 8
55 17 109 19 121 2 11 7 58 11 105 4 46 9 87 11 91 2 3 6 41 9 85 3 43 7 92
10 108 20 145 28 839 13 1010 -26 269 -28 297 -43 430 -9 84 -37 259 -43 275
-3 8 -6 26 -7 40 -1 14 -7 38 -14 54 -6 16 -10 34 -8 40 2 6 0 21 -4 34 -5 13
-11 40 -14 61 -2 21 -10 51 -16 67 -6 16 -13 49 -16 74 -3 25 -9 53 -14 63 -6
9 -7 22 -4 27 3 6 2 10 -2 10 -5 0 -14 24 -20 53 -53 243 -243 818 -349 1054
-8 17 -14 34 -14 37 0 14 -168 383 -262 576 -516 1058 -1351 2090 -2313 2858
-66 53 -127 103 -135 112 -60 67 -559 399 -765 510 -27 15 -68 37 -90 49 l-39
23 -17 -21 c-10 -12 -23 -21 -31 -21 -10 0 -9 -3 2 -10 8 -5 11 -10 5 -10 -5
0 6 -10 25 -23 34 -21 49 -55 22 -50 -24 5 -11 -17 13 -23 14 -3 23 -10 20
-14 -3 -5 -1 -11 5 -15 15 -9 12 -44 -5 -61 -17 -18 -19 -11 -5 17 6 10 8 19
6 19 -9 0 -27 -40 -32 -68 -3 -15 -14 -37 -25 -48 -16 -17 -17 -23 -7 -27 9
-4 7 -6 -4 -6 -10 -1 -18 -6 -18 -13 0 -16 -106 -118 -124 -118 -7 0 -19 -6
-26 -14 -6 -8 -17 -13 -25 -10 -7 3 -16 0 -20 -5 -3 -6 -11 -8 -17 -5 -7 5 -9
1 -5 -9 8 -21 4 -21 -32 -3 -23 13 -28 13 -28 1 0 -8 4 -12 8 -9 4 2 9 -1 11
-6 2 -6 13 -12 26 -13 12 0 22 -4 22 -8 0 -7 43 -19 160 -45 198 -44 453 -110
480 -124 10 -6 30 -10 43 -10 14 0 30 -7 37 -15 6 -8 22 -17 33 -21 69 -19
136 -48 132 -54 -3 -5 5 -6 17 -2 14 3 19 1 14 -6 -7 -12 88 -65 98 -55 3 4 6
2 6 -4 0 -9 96 -67 113 -68 5 0 22 -13 38 -29 17 -18 29 -24 29 -15 0 8 6 4
16 -9 8 -12 20 -20 25 -17 5 4 9 1 9 -5 0 -21 25 -40 53 -40 6 0 29 -15 49
-33 21 -17 56 -45 77 -62 22 -16 43 -38 46 -48 4 -9 11 -15 16 -12 5 4 16 -1
24 -9 9 -8 42 -36 75 -62 33 -26 57 -51 53 -57 -3 -6 -1 -7 6 -3 7 4 30 -13
59 -43 26 -27 68 -72 94 -100 25 -27 49 -47 52 -43 3 3 6 -3 6 -14 0 -10 4
-15 8 -9 4 6 20 -3 40 -22 18 -18 29 -33 25 -33 -4 0 -3 -4 2 -8 18 -13 185
-200 185 -207 0 -3 6 -12 13 -19 34 -36 178 -210 237 -286 19 -25 37 -47 40
-50 3 -3 18 -23 35 -45 16 -22 37 -49 47 -59 10 -11 18 -26 18 -33 0 -8 7 -16
15 -19 8 -4 15 -10 15 -15 0 -6 9 -20 21 -32 29 -31 319 -464 319 -477 0 -5 4
-10 9 -10 5 0 11 -10 15 -22 3 -13 29 -59 57 -102 82 -126 267 -448 344 -597
24 -48 53 -102 63 -121 69 -122 246 -528 335 -768 260 -700 394 -1334 428
-2029 28 -588 -62 -1283 -252 -1944 -266 -925 -668 -1746 -1236 -2523 -21 -29
-53 -74 -72 -100 -135 -190 -563 -698 -798 -946 l-54 -58 -66 0 -65 0 27 32
c15 18 80 89 145 158 64 69 155 168 201 220 46 52 86 97 89 100 6 6 99 115
126 149 10 13 24 28 29 35 32 36 152 183 165 202 8 12 59 79 112 150 170 225
260 354 374 534 23 36 67 105 98 153 31 48 56 90 56 92 0 3 19 35 41 72 65
106 291 555 349 693 28 69 60 143 70 165 61 136 179 464 238 660 105 352 169
635 216 955 15 103 19 133 31 255 4 33 8 74 11 90 10 71 15 209 19 495 3 278
-1 405 -19 590 -22 222 -27 264 -52 420 -9 52 -18 109 -20 125 -5 31 -33 170
-59 290 -8 39 -22 97 -31 130 -9 33 -20 76 -24 95 -17 78 -117 424 -155 535
-372 1094 -921 1976 -1660 2668 -437 409 -899 747 -1405 1029 -187 104 -519
259 -582 272 -7 2 -21 6 -30 9 -46 17 -49 17 -39 -2 12 -21 5 -32 -15 -24 -8
3 -26 2 -42 -2 l-27 -8 25 -7 c21 -7 17 -8 -20 -10 l-45 -2 30 -13 c25 -12 26
-14 10 -16 -11 -1 -25 -2 -31 -2 -6 0 -17 -9 -23 -20 -12 -18 -11 -19 9 -14
13 3 19 2 14 -2 -17 -16 -62 -21 -68 -8 -3 6 -3 1 0 -11 5 -21 3 -23 -18 -18
-12 3 -17 3 -10 0 6 -3 12 -12 12 -20 0 -9 -5 -12 -10 -9 -12 8 -62 -30 -52
-39 3 -4 0 -4 -9 -1 -8 3 -25 -4 -37 -15 -12 -12 -27 -18 -32 -15 -6 4 -7 -1
-3 -11 4 -11 2 -15 -4 -11 -10 6 -27 -27 -24 -45 1 -5 -4 -8 -10 -8 -5 0 -8
-4 -5 -9 4 -5 -7 -7 -24 -5 -16 3 -38 0 -47 -6 -12 -7 -13 -10 -3 -7 8 2 29
-2 47 -10 19 -8 34 -9 38 -3 3 5 15 0 25 -10 11 -11 27 -20 36 -20 29 0 279
-88 482 -169 112 -45 249 -97 305 -115 56 -18 149 -50 207 -71 91 -32 141 -54
325 -141 17 -8 53 -28 80 -44 28 -17 69 -40 92 -52 24 -12 43 -25 43 -30 0 -4
7 -8 15 -8 8 0 15 -5 15 -12 0 -6 3 -9 6 -5 5 5 73 -40 115 -76 33 -29 129
-97 135 -97 3 1 15 -9 27 -23 12 -13 42 -39 67 -57 45 -35 111 -93 181 -162
20 -21 41 -38 46 -38 11 0 37 -31 46 -53 3 -9 13 -17 22 -17 8 0 15 -5 15 -10
0 -6 31 -41 70 -79 38 -37 70 -71 70 -74 0 -3 15 -21 33 -40 17 -19 48 -54 67
-77 19 -23 47 -55 62 -71 15 -16 27 -32 27 -35 0 -3 16 -24 35 -46 20 -22 36
-47 36 -54 0 -8 7 -14 16 -14 8 0 13 -4 10 -9 -4 -5 -3 -11 1 -13 13 -5 73
-86 138 -183 65 -97 66 -98 95 -134 11 -13 20 -28 20 -32 0 -5 25 -47 56 -95
31 -48 65 -105 75 -128 11 -22 37 -70 59 -106 22 -36 45 -74 50 -85 6 -11 24
-45 41 -75 63 -111 247 -478 293 -584 105 -237 233 -603 305 -871 200 -746
269 -1462 206 -2135 -54 -569 -206 -1160 -458 -1780 -344 -844 -748 -1510
-1336 -2200 -38 -44 -54 -62 -130 -145 -21 -22 -61 -67 -90 -100 -29 -33 -179
-187 -334 -343 l-281 -282 -94 0 -93 0 404 403 c353 351 476 482 653 693 58
70 191 239 244 309 25 33 47 62 50 65 15 14 137 191 209 300 44 69 86 130 91
137 6 7 10 14 10 17 0 3 17 33 38 68 103 169 153 261 270 493 65 128 86 172
159 335 242 541 429 1210 497 1785 36 305 40 380 41 760 0 384 -5 481 -41 770
-128 1026 -515 2012 -1093 2780 -147 196 -268 333 -490 555 -225 225 -356 342
-566 505 -437 340 -949 632 -1218 695 -104 24 -100 23 -91 8 4 -7 -1 -6 -11 3
-13 13 -25 15 -46 9 -18 -5 -27 -5 -24 1 4 5 1 9 -4 9 -6 0 -11 -3 -11 -7 0
-5 -32 -8 -70 -8 -41 0 -74 -5 -78 -11 -4 -7 -21 -9 -39 -7 -18 3 -30 9 -27
14 3 5 -5 5 -18 0 -13 -5 -46 -8 -75 -7 -28 1 -50 -1 -47 -5 2 -4 -14 -10 -36
-14 -23 -4 -51 -17 -63 -28 -12 -12 -33 -23 -47 -25 -14 -1 -26 -7 -28 -12 -2
-5 -10 -6 -18 -3 -8 3 -21 0 -29 -7 -12 -10 -15 -10 -15 1 -1 10 -4 9 -14 -3
-7 -10 -16 -15 -19 -12 -3 3 -16 -2 -29 -10 -14 -9 -27 -13 -31 -10 -3 3 -12
2 -19 -2 -7 -5 -22 -10 -33 -11 -20 -3 -49 -15 -96 -39 -20 -10 -29 -11 -39
-1 -8 8 -11 8 -7 1 8 -15 -13 -23 -45 -20 -41 5 -29 -24 19 -45 25 -10 53 -19
62 -19 10 0 20 -3 24 -6 3 -3 54 -23 114 -44 172 -60 225 -80 281 -106 29 -13
55 -24 58 -24 7 0 167 -75 274 -130 260 -131 555 -323 787 -512 245 -200 300
-244 518 -408 220 -166 515 -399 600 -475 211 -188 448 -423 471 -468 8 -15
18 -25 23 -23 7 5 37 -29 30 -35 -2 -2 11 -20 29 -39 54 -58 92 -112 86 -121
-3 -5 2 -6 10 -3 12 4 16 0 16 -16 0 -11 4 -19 8 -16 8 5 29 -15 47 -44 8 -13
6 -13 -11 -1 -10 8 -3 -1 17 -20 36 -34 65 -77 61 -91 -1 -5 3 -8 8 -8 6 0 10
-7 10 -15 0 -8 5 -15 10 -15 6 0 10 -7 10 -15 0 -9 7 -18 15 -21 8 -4 12 -10
9 -15 -3 -5 0 -9 5 -9 6 0 11 -8 11 -18 0 -10 8 -27 18 -38 9 -11 18 -26 20
-34 2 -8 8 -17 13 -18 5 -2 7 -7 4 -12 -3 -4 2 -13 10 -20 8 -7 15 -19 15 -27
0 -7 7 -16 15 -19 9 -4 15 -11 14 -18 -3 -24 1 -37 11 -31 6 4 7 -1 3 -11 -3
-10 -2 -15 3 -12 5 4 10 -5 10 -18 1 -14 11 -33 21 -42 11 -9 18 -22 16 -29
-2 -6 10 -40 27 -75 18 -35 43 -97 57 -138 14 -41 29 -80 35 -87 5 -7 6 -18 2
-24 -5 -9 -2 -10 11 -5 15 5 16 4 5 -9 -8 -10 -9 -15 -1 -15 6 0 11 -9 11 -20
0 -12 8 -33 18 -47 9 -15 12 -24 5 -20 -14 9 -11 -21 3 -31 5 -4 9 -17 8 -29
-1 -12 2 -20 6 -18 4 3 11 -2 14 -11 4 -9 2 -13 -5 -8 -6 4 -5 -4 2 -17 7 -13
12 -28 11 -33 -2 -4 2 -14 9 -22 6 -7 8 -18 5 -23 -4 -5 -2 -12 3 -16 5 -3 8
-14 6 -25 -2 -12 0 -18 5 -15 5 3 9 -5 8 -17 -2 -43 2 -59 12 -53 9 6 15 -36
10 -79 -1 -10 3 -15 9 -12 6 4 9 -6 7 -28 -1 -19 1 -33 5 -30 4 2 10 0 14 -6
3 -5 0 -10 -7 -10 -8 0 -9 -3 -3 -8 6 -4 11 -32 13 -62 2 -30 7 -56 11 -58 4
-1 6 -14 3 -27 -2 -14 1 -32 8 -40 8 -9 8 -15 2 -15 -7 0 -7 -10 0 -32 6 -18
11 -46 12 -63 1 -18 7 -29 14 -27 10 2 10 -3 2 -17 -13 -25 -13 -54 0 -46 5 3
10 2 10 -4 0 -5 -5 -11 -11 -13 -8 -3 -6 -16 5 -42 9 -22 14 -41 12 -44 -3 -2
-1 -15 4 -28 6 -15 6 -24 0 -24 -6 0 -10 -9 -10 -21 0 -11 4 -17 10 -14 13 8
13 -57 1 -71 -6 -5 -4 -24 5 -49 9 -25 13 -57 9 -87 -4 -30 -2 -48 5 -48 5 0
10 -9 10 -20 0 -11 -5 -20 -11 -20 -7 0 -10 -62 -9 -202 0 -112 -1 -227 -3
-255 -2 -29 0 -53 3 -53 6 0 6 -18 0 -55 -1 -5 -5 -1 -10 10 -8 18 -9 18 -9
-5 0 -14 3 -42 8 -62 5 -22 5 -36 0 -32 -5 3 -9 -6 -9 -20 0 -14 -5 -26 -11
-26 -7 0 -8 -14 -4 -40 4 -22 3 -40 -2 -40 -10 0 -11 -63 -2 -70 4 -3 0 -23
-8 -45 -9 -22 -15 -55 -14 -73 1 -20 -3 -31 -9 -27 -5 3 -10 0 -10 -9 0 -8 6
-16 13 -19 9 -3 9 -7 -1 -20 -8 -9 -11 -21 -8 -26 4 -5 1 -13 -4 -16 -7 -5 -5
-12 7 -21 12 -9 13 -13 4 -12 -9 2 -17 -10 -22 -32 -5 -19 -11 -46 -15 -60
-13 -53 -22 -115 -17 -123 2 -4 -4 -7 -13 -7 -10 0 -15 -3 -12 -6 4 -3 2 -18
-2 -34 -6 -20 -5 -30 3 -34 9 -3 8 -5 0 -5 -7 -1 -13 -12 -13 -25 0 -14 -4
-27 -9 -30 -4 -3 -8 -18 -7 -33 1 -15 -5 -34 -11 -41 -7 -7 -13 -22 -13 -33 0
-11 -8 -31 -17 -45 -9 -14 -18 -40 -20 -57 -1 -18 -8 -43 -14 -57 -7 -14 -15
-34 -19 -45 -4 -11 -13 -33 -21 -50 -7 -16 -12 -34 -10 -39 1 -4 -2 -13 -7
-20 -5 -6 -15 -29 -22 -51 -7 -22 -17 -42 -21 -45 -5 -3 -9 -20 -11 -37 -1
-17 -5 -30 -9 -27 -4 2 -10 -7 -13 -21 -4 -14 -11 -25 -16 -25 -5 0 -7 -9 -5
-20 2 -11 -1 -20 -6 -20 -6 0 -15 -13 -20 -30 -6 -16 -15 -30 -21 -30 -5 0 -7
-4 -4 -8 3 -5 -1 -20 -9 -35 -7 -14 -11 -28 -7 -31 3 -3 0 -6 -6 -6 -12 0 -42
-62 -45 -92 -1 -9 -4 -15 -8 -12 -7 4 -25 -36 -20 -44 1 -2 -8 -12 -21 -23
-13 -11 -16 -17 -8 -13 12 6 12 3 -2 -12 -22 -26 -110 -194 -101 -194 4 0 -3
-7 -15 -16 -12 -8 -22 -21 -22 -29 0 -8 -7 -18 -16 -23 -9 -5 -15 -11 -14 -13
3 -9 -15 -45 -29 -55 -8 -6 -12 -18 -8 -28 4 -10 3 -15 -3 -11 -6 3 -10 0 -10
-8 0 -7 -9 -23 -20 -35 -11 -12 -19 -25 -18 -29 1 -4 -12 -23 -30 -42 -18 -18
-31 -41 -30 -50 2 -9 -3 -15 -9 -14 -7 2 -12 0 -12 -5 3 -20 -3 -30 -21 -35
-12 -3 -20 -14 -20 -26 0 -12 -4 -21 -10 -21 -5 0 -10 -6 -10 -13 0 -7 -9 -18
-20 -25 -11 -7 -20 -21 -20 -33 0 -11 -4 -17 -10 -14 -6 4 -10 -5 -10 -20 0
-17 -4 -24 -12 -19 -8 5 -9 2 -5 -10 4 -9 3 -15 -1 -12 -11 7 -42 -30 -42 -50
0 -8 -4 -13 -9 -10 -5 3 -19 -10 -32 -29 -13 -19 -27 -35 -31 -35 -5 0 -8 -8
-8 -19 0 -21 -23 -45 -33 -34 -4 3 -7 -3 -7 -14 0 -11 -9 -28 -20 -38 -11 -10
-17 -22 -14 -26 3 -5 0 -9 -7 -9 -6 0 -25 -15 -41 -32 -16 -18 -39 -43 -51
-55 -12 -13 -17 -23 -12 -23 5 0 -1 -7 -13 -16 -12 -8 -27 -12 -34 -8 -6 4 -8
3 -4 -4 9 -14 -14 -62 -30 -62 -13 0 -44 -37 -44 -53 0 -4 5 -5 12 -1 6 4 8 3
5 -4 -4 -5 -16 -8 -27 -5 -15 4 -20 0 -20 -14 0 -11 -11 -26 -25 -33 -14 -7
-25 -20 -25 -28 0 -9 -6 -12 -16 -8 -8 3 -12 2 -9 -4 3 -5 -3 -17 -14 -27 -11
-9 -18 -21 -15 -27 3 -6 -2 -2 -11 9 -17 20 -17 20 -10 -2 5 -18 3 -22 -9 -17
-10 4 -16 1 -16 -9 0 -9 -12 -29 -26 -47 -25 -29 -27 -29 -40 -13 -12 16 -12
16 -7 -6 5 -18 3 -22 -6 -16 -10 6 -11 3 -1 -16 10 -20 10 -22 -1 -11 -18 17
-32 15 -25 -4 6 -15 4 -15 -11 -3 -15 12 -16 12 -10 -3 4 -12 2 -18 -8 -18 -8
0 -15 -4 -15 -10 0 -5 5 -10 10 -10 6 0 5 -8 -2 -20 -7 -11 -16 -20 -21 -20
-4 0 -5 5 -1 12 5 7 3 8 -5 4 -7 -5 -10 -11 -7 -14 7 -7 -33 -52 -46 -52 -5 0
-6 6 -2 13 4 6 -5 1 -19 -12 -15 -14 -25 -27 -22 -29 3 -3 12 3 20 14 8 10 15
14 15 8 0 -18 -31 -39 -54 -36 -17 2 -18 1 -6 -7 13 -9 12 -11 -5 -11 -13 0
-16 -3 -8 -8 9 -5 -6 -26 -48 -67 -48 -47 -62 -56 -69 -45 -8 12 -10 11 -10
-5 -1 -22 -13 -40 -49 -70 -15 -12 -21 -14 -16 -5 7 12 6 13 -7 3 -8 -7 -18
-9 -22 -5 -4 4 -6 0 -4 -8 2 -8 8 -18 13 -22 6 -4 1 -8 -9 -8 -11 0 -16 -3
-13 -7 9 -8 -31 -36 -42 -29 -5 3 -8 -2 -7 -12 0 -9 -9 -21 -21 -27 -13 -5
-23 -15 -23 -22 0 -7 -4 -13 -10 -13 -5 0 -10 -5 -10 -11 0 -16 -71 -79 -81
-73 -5 3 -6 -3 -2 -12 4 -12 3 -15 -5 -10 -7 4 -12 2 -12 -4 0 -6 -11 -16 -25
-22 -14 -6 -25 -17 -25 -23 0 -7 -17 -25 -37 -41 -46 -34 -83 -72 -83 -85 0
-5 -7 -9 -15 -9 -8 0 -20 -9 -27 -20 -7 -11 -19 -20 -26 -20 -7 0 -10 -5 -7
-10 3 -5 -1 -10 -10 -10 -8 0 -18 -7 -22 -16 -3 -8 -16 -20 -29 -25 -13 -4
-24 -15 -24 -24 0 -8 -9 -15 -19 -15 -10 0 -21 -7 -25 -15 -3 -8 -11 -15 -18
-15 -7 0 -22 -14 -33 -30 -11 -16 -28 -30 -37 -30 -12 0 -15 -5 -11 -17 6 -16
5 -17 -12 -3 -10 8 -16 11 -13 5 7 -12 -17 -37 -26 -27 -4 3 -4 -1 0 -11 3
-10 1 -17 -5 -17 -15 0 -81 -66 -74 -74 4 -3 -3 -6 -15 -6 -12 0 -22 -4 -22
-10 0 -5 -11 -12 -25 -16 -13 -3 -23 -11 -22 -18 1 -6 -4 -10 -11 -8 -8 1 -11
-1 -8 -6 3 -5 -3 -15 -12 -23 -10 -8 -42 -34 -72 -59 -30 -25 -65 -55 -78 -68
-13 -12 -27 -20 -32 -17 -4 3 -7 -6 -5 -20 1 -14 -2 -28 -8 -32 -6 -3 -7 -1
-3 5 13 22 -11 20 -36 -3 -14 -13 -29 -21 -32 -18 -3 4 -6 1 -6 -5 0 -8 -74
-12 -267 -15 -148 -1 1775 -3 4272 -5 l4540 -2 -3 7690 -2 7690 -13660 0
-13660 0 0 -7690z m18726 3365 c-22 -17 -56 -20 -56 -6 0 9 25 17 60 19 11 1
10 -3 -4 -13z m5951 -550 c0 -8 -4 -12 -9 -9 -5 3 -6 10 -3 15 9 13 12 11 12
-6z m-360 -71 c-3 -3 -12 -4 -19 -1 -8 3 -5 6 6 6 11 1 17 -2 13 -5z m-31 -16
c4 -6 3 -8 -3 -5 -6 4 -16 0 -23 -8 -7 -8 -19 -15 -28 -15 -8 0 -23 -7 -32
-15 -14 -13 -17 -13 -17 -1 0 8 3 14 6 14 15 -3 40 15 34 25 -3 5 -2 8 3 5 5
-3 18 -2 29 3 11 4 21 8 22 8 1 1 5 -4 9 -11z m844 -843 c46 -206 97 -496 86
-484 -3 3 -17 73 -31 155 -13 82 -29 167 -34 189 -13 55 -48 213 -57 255 -3
19 -4 33 -1 30 3 -3 20 -69 37 -145z m-1563 13 c-3 -8 -6 -5 -6 6 -1 11 2 17
5 13 3 -3 4 -12 1 -19z m1660 -570 c-2 -13 -4 -3 -4 22 0 25 2 35 4 23 2 -13
2 -33 0 -45z m10 -65 c-3 -10 -5 -4 -5 12 0 17 2 24 5 18 2 -7 2 -21 0 -30z
m16 -108 c4 -60 3 -69 -3 -35 -9 46 -13 127 -6 119 2 -2 6 -40 9 -84z m14
-182 c-2 -21 -4 -6 -4 32 0 39 2 55 4 38 2 -18 2 -50 0 -70z m-1557 -68 c0 -5
-5 -3 -10 5 -5 8 -10 20 -10 25 0 6 5 3 10 -5 5 -8 10 -19 10 -25z m1567 -52
c-2 -16 -4 -3 -4 27 0 30 2 43 4 28 2 -16 2 -40 0 -55z m10 -390 c-1 -65 -3
-14 -3 112 0 127 2 180 3 118 2 -62 2 -165 0 -230z m-1560 235 c-3 -8 -6 -5
-6 6 -1 11 2 17 5 13 3 -3 4 -12 1 -19z m7 -81 c-5 -15 -3 -18 7 -12 8 5 11 5
7 0 -4 -4 -1 -17 7 -29 8 -11 15 -25 15 -31 0 -5 -5 -3 -10 5 -8 12 -10 9 -10
-13 0 -16 4 -26 8 -23 4 3 8 -12 9 -32 1 -34 0 -35 -9 -12 -6 14 -13 32 -17
40 -4 8 -7 29 -6 45 0 17 -4 33 -9 37 -5 3 -11 21 -12 38 -2 26 0 29 12 19 9
-7 12 -20 8 -32z m1543 -369 c-2 -13 -4 -3 -4 22 0 25 2 35 4 23 2 -13 2 -33
0 -45z m-10 -110 c-2 -18 -4 -6 -4 27 0 33 2 48 4 33 2 -15 2 -42 0 -60z
m-1470 26 c-3 -3 -12 -4 -19 -1 -8 3 -5 6 6 6 11 1 17 -2 13 -5z m21 -75 c-4
-46 -18 -46 -15 0 1 21 5 37 10 34 4 -2 6 -18 5 -34z m12 -53 c0 -2 -7 -9 -15
-16 -13 -11 -14 -10 -9 4 5 14 24 23 24 12z m-1663 -2868 c-3 -8 -6 -5 -6 6
-1 11 2 17 5 13 3 -3 4 -12 1 -19z m1760 -1040 c-3 -7 -5 -2 -5 12 0 14 2 19
5 13 2 -7 2 -19 0 -25z m-40 -180 c-3 -7 -5 -2 -5 12 0 14 2 19 5 13 2 -7 2
-19 0 -25z m-40 -160 c-3 -8 -6 -5 -6 6 -1 11 2 17 5 13 3 -3 4 -12 1 -19z
m-13 -57 c-4 -17 -9 -30 -11 -27 -3 2 -2 19 2 36 9 41 17 33 9 -9z m-23 -77
c-5 -16 -10 -21 -10 -12 -1 18 10 51 15 45 2 -1 -1 -16 -5 -33z m-24 -86 c-3
-8 -6 -5 -6 6 -1 11 2 17 5 13 3 -3 4 -12 1 -19z m-16 -54 c-5 -16 -10 -21
-10 -12 -1 18 10 51 15 45 2 -1 -1 -16 -5 -33z m-24 -76 c-3 -8 -6 -5 -6 6 -1
11 2 17 5 13 3 -3 4 -12 1 -19z m-16 -49 c-5 -13 -10 -19 -10 -12 -1 15 10 45
15 40 3 -2 0 -15 -5 -28z m-31 -96 c-11 -17 -11 -17 -6 0 3 10 6 24 7 30 0 9
2 9 5 0 3 -7 0 -20 -6 -30z m-29 -84 c-5 -13 -10 -19 -10 -12 -1 15 10 45 15
40 3 -2 0 -15 -5 -28z m-20 -60 c-5 -13 -10 -19 -10 -12 -1 15 10 45 15 40 3
-2 0 -15 -5 -28z m-52 -143 c-12 -31 -24 -55 -26 -53 -2 2 6 30 18 61 12 31
24 55 26 53 2 -2 -6 -30 -18 -61z m-43 -107 c-9 -19 -15 -29 -16 -22 0 15 22
64 27 60 2 -2 -3 -19 -11 -38z m-37 -91 c-21 -54 -38 -88 -39 -77 0 4 7 24 16
45 9 22 20 49 25 62 5 12 11 22 14 22 2 0 -5 -23 -16 -52z m-66 -153 c-3 -9
-8 -14 -10 -11 -3 3 -2 9 2 15 9 16 15 13 8 -4z m-25 -50 c-6 -14 -13 -23 -15
-21 -5 5 15 46 22 46 3 0 -1 -11 -7 -25z m-33 -71 c-8 -20 -15 -39 -15 -42 0
-3 -2 -3 -5 0 -6 5 22 78 30 78 3 0 -2 -16 -10 -36z m-32 -69 c-3 -9 -8 -14
-10 -11 -3 3 -2 9 2 15 9 16 15 13 8 -4z m-20 -40 c-3 -9 -8 -14 -10 -11 -3 3
-2 9 2 15 9 16 15 13 8 -4z m-20 -40 c-3 -9 -8 -14 -10 -11 -3 3 -2 9 2 15 9
16 15 13 8 -4z m-60 -120 c-3 -9 -8 -14 -10 -11 -3 3 -2 9 2 15 9 16 15 13 8
-4z m-20 -40 c-3 -9 -8 -14 -10 -11 -3 3 -2 9 2 15 9 16 15 13 8 -4z m-20 -40
c-3 -9 -8 -14 -10 -11 -3 3 -2 9 2 15 9 16 15 13 8 -4z m-29 -55 c-10 -16 -20
-28 -22 -26 -4 5 28 56 35 56 2 0 -4 -13 -13 -30z m-50 -90 c-15 -28 -29 -49
-31 -47 -4 5 47 97 53 97 3 0 -7 -23 -22 -50z m-44 -80 c-6 -11 -13 -20 -16
-20 -2 0 0 9 6 20 6 11 13 20 16 20 2 0 0 -9 -6 -20z m-45 -77 c-15 -27 -32
-52 -38 -58 -6 -5 2 13 18 40 15 28 30 53 32 58 2 4 7 7 10 7 2 0 -7 -21 -22
-47z m-66 -110 c-55 -92 -121 -193 -126 -193 -3 0 3 12 13 28 18 28 37 59 94
150 17 28 34 52 37 52 2 0 -6 -17 -18 -37z m-266 -410 c-122 -181 -243 -343
-387 -523 -115 -144 -265 -320 -272 -320 -6 0 45 65 86 109 14 16 48 56 75 90
28 35 87 107 132 162 45 54 87 108 93 120 6 11 19 29 28 39 33 36 143 187 256
353 48 70 89 127 92 127 3 0 -43 -71 -103 -157z m-761 -325 c-7 -7 -12 -8 -12
-2 0 14 12 26 19 19 2 -3 -1 -11 -7 -17z m98 -531 c0 -2 -17 -19 -37 -38 l-38
-34 34 38 c33 34 41 42 41 34z m-115 -129 c-28 -29 -52 -55 -54 -58 -2 -3 -2
0 0 6 6 18 83 103 94 104 5 0 -13 -24 -40 -52z"/>
<path d="M20335 18480 c3 -5 8 -10 11 -10 2 0 4 5 4 10 0 6 -5 10 -11 10 -5 0
-7 -4 -4 -10z"/>
<path d="M20533 18355 c86 -58 165 -112 175 -120 9 -7 69 -55 132 -105 209
-166 486 -428 616 -583 41 -49 114 -134 163 -190 285 -327 512 -636 938 -1278
338 -510 485 -758 676 -1139 62 -124 132 -267 155 -317 24 -51 48 -93 53 -93
6 0 7 6 2 13 -4 6 -8 17 -9 22 -1 6 -15 44 -31 85 -17 41 -43 109 -58 150 -15
41 -37 95 -48 120 -10 25 -23 54 -28 65 -4 11 -24 55 -44 98 -19 43 -35 81
-35 84 0 7 -55 123 -132 278 -77 153 -220 414 -292 530 -30 50 -70 114 -88
144 -18 29 -41 65 -50 80 -10 14 -21 33 -25 41 -24 47 -339 490 -412 580 -20
25 -55 70 -78 100 -112 148 -462 549 -603 690 -229 229 -502 458 -714 599 -38
25 -79 53 -91 61 -136 91 -176 116 -210 131 -22 10 -53 28 -70 39 -16 11 -34
20 -39 20 -6 0 61 -47 147 -105z"/>
<path d="M20840 18360 c0 -5 5 -10 11 -10 5 0 7 5 4 10 -3 6 -8 10 -11 10 -2
0 -4 -4 -4 -10z"/>
<path d="M20870 18341 c0 -13 39 -35 48 -27 3 3 0 6 -6 6 -6 0 -18 7 -26 16
-9 8 -16 11 -16 5z"/>
<path d="M20980 18256 c0 -2 8 -10 18 -17 15 -13 16 -12 3 4 -13 16 -21 21
-21 13z"/>
<path d="M19260 18121 c20 -17 29 -31 21 -31 -8 0 -11 -3 -8 -6 4 -4 13 -1 22
6 12 10 15 9 16 -6 0 -11 3 -14 6 -6 2 6 9 10 13 7 5 -3 8 3 7 14 -1 14 -5 17
-13 10 -8 -7 -17 -5 -28 6 -9 9 -16 14 -16 10 0 -3 -12 2 -27 11 -23 13 -21
10 7 -15z"/>
<path d="M19387 17909 c7 -7 15 -10 18 -7 3 3 -2 9 -12 12 -14 6 -15 5 -6 -5z"/>
<path d="M18486 17035 c4 -8 16 -15 28 -15 21 1 21 1 2 15 -25 19 -37 19 -30
0z"/>
<path d="M22220 16983 c0 -5 10 -18 23 -29 l22 -19 -20 25 c-11 14 -21 27 -22
29 -2 2 -3 0 -3 -6z"/>
<path d="M22296 16880 c21 -30 65 -90 96 -133 32 -43 62 -86 67 -95 5 -9 12
-15 15 -12 2 3 -14 31 -37 62 -23 31 -61 83 -84 115 -58 80 -104 131 -57 63z"/>
<path d="M24655 16639 c-4 -6 -5 -12 -2 -15 2 -3 7 2 10 11 7 17 1 20 -8 4z"/>
<path d="M24670 16621 c0 -6 4 -13 10 -16 6 -3 7 1 4 9 -7 18 -14 21 -14 7z"/>
<path d="M22580 16480 c82 -124 114 -167 90 -122 -16 33 -140 214 -158 232 -8
8 23 -41 68 -110z"/>
<path d="M24266 16558 c3 -4 9 -8 15 -8 5 0 9 4 9 8 0 5 -7 9 -15 9 -8 0 -12
-4 -9 -9z"/>
<path d="M24463 16563 c9 -2 23 -2 30 0 6 3 -1 5 -18 5 -16 0 -22 -2 -12 -5z"/>
<path d="M24315 16531 c3 -5 0 -11 -7 -14 -7 -2 -5 -3 5 -2 9 2 17 -3 17 -11
0 -8 5 -14 10 -14 13 0 9 20 -7 37 -13 15 -27 17 -18 4z"/>
<path d="M17948 16458 c-7 -4 -11 -8 -8 -9 30 -6 47 -3 47 6 0 14 -21 15 -39
3z"/>
<path d="M23900 16440 c-13 -8 -13 -10 2 -10 9 0 20 5 23 10 8 13 -5 13 -25 0z"/>
<path d="M23855 16420 c-3 -6 1 -7 9 -4 18 7 21 14 7 14 -6 0 -13 -4 -16 -10z"/>
<path d="M22695 16306 c10 -14 19 -26 22 -26 7 0 -17 39 -28 46 -6 3 -3 -5 6
-20z"/>
<path d="M23752 16279 c-9 -12 -28 -32 -42 -46 -21 -20 -22 -23 -5 -16 37 15
115 65 115 74 0 18 -51 9 -68 -12z"/>
<path d="M23631 16213 c-1 -6 -4 -20 -7 -30 -5 -17 -5 -17 6 0 6 10 9 23 6 30
-3 9 -5 9 -5 0z"/>
<path d="M22780 16170 c6 -11 13 -20 16 -20 2 0 0 9 -6 20 -6 11 -13 20 -16
20 -2 0 0 -9 6 -20z"/>
<path d="M23621 16004 c0 -11 3 -14 6 -6 3 7 2 16 -1 19 -3 4 -6 -2 -5 -13z"/>
<path d="M23613 15966 c1 -11 9 -21 17 -23 10 -3 11 -2 4 4 -6 4 -14 15 -17
23 -5 11 -6 9 -4 -4z"/>
<path d="M23021 15745 c0 -5 6 -19 14 -29 8 -11 15 -15 15 -10 0 6 -7 19 -15
30 -8 10 -14 15 -14 9z"/>
<path d="M23080 15631 c0 -6 4 -13 10 -16 6 -3 7 1 4 9 -7 18 -14 21 -14 7z"/>
<path d="M23181 15425 c0 -14 57 -132 58 -120 0 6 -12 37 -29 70 -16 33 -29
56 -29 50z"/>
<path d="M23551 15390 c-6 -98 -6 -117 0 -140 6 -22 7 -20 8 12 1 20 5 40 11
43 5 3 9 16 9 28 0 12 3 33 7 47 7 22 6 23 -8 12 -14 -11 -17 -10 -21 10 -3
17 -5 13 -6 -12z"/>
<path d="M19085 15351 c9 -16 -33 -23 -99 -16 -86 10 -374 10 -471 0 -44 -4
-88 -8 -97 -8 -10 -1 -18 -4 -18 -8 0 -14 -59 -20 -80 -9 -16 9 -21 8 -26 -5
-3 -8 -10 -15 -16 -15 -5 0 -6 4 -3 10 4 6 -5 9 -19 8 -30 -3 -30 -3 -15 -29
6 -12 17 -18 25 -15 8 3 13 0 11 -7 -1 -7 7 -11 21 -10 15 2 22 -3 22 -15 0
-10 10 -26 23 -36 75 -63 174 -152 257 -231 107 -104 167 -159 360 -330 371
-330 1235 -1157 1228 -1175 -2 -5 30 -46 64 -81 9 -9 19 -27 23 -38 3 -12 11
-19 16 -16 5 4 9 -1 9 -9 0 -8 10 -23 23 -33 21 -16 37 -44 36 -59 0 -4 5 -10
13 -15 7 -5 13 -14 13 -21 1 -7 6 -12 12 -11 6 1 14 -4 17 -13 4 -10 1 -13 -7
-9 -6 4 -1 -2 13 -13 14 -12 22 -24 18 -27 -10 -10 34 -55 46 -48 6 4 5 0 -2
-9 -10 -13 -9 -16 8 -21 13 -3 18 -10 14 -21 -8 -20 14 -48 30 -39 6 4 6 0 -2
-9 -10 -13 -10 -17 3 -22 11 -4 14 -2 9 7 -5 7 0 6 10 -3 18 -14 18 -15 -5
-21 -17 -5 -19 -7 -6 -8 10 -1 16 -5 13 -10 -3 -5 0 -11 8 -14 7 -3 22 -28 32
-56 11 -31 23 -50 30 -47 15 6 27 -21 14 -29 -6 -4 -10 -11 -10 -16 0 -6 5 -7
10 -4 6 3 10 1 10 -4 0 -6 -6 -11 -12 -11 -9 0 -8 -3 2 -9 8 -6 17 -8 21 -5 4
2 15 -15 24 -39 27 -67 29 -73 13 -53 -15 19 -15 18 -14 -11 0 -16 6 -30 13
-30 7 0 10 5 7 11 -3 6 2 2 10 -8 10 -12 13 -28 9 -44 -3 -15 -2 -23 4 -19 6
4 9 -15 8 -46 -1 -29 0 -44 2 -34 3 9 12 17 21 16 11 0 12 -2 5 -6 -7 -2 -13
-18 -13 -34 0 -17 4 -28 8 -25 8 5 9 0 16 -64 3 -19 5 -37 6 -40 1 -3 2 -8 1
-12 0 -5 3 -8 8 -8 12 0 21 -39 10 -46 -5 -3 -8 -13 -8 -22 1 -15 2 -15 6 1 7
25 20 21 27 -10 5 -17 3 -29 -6 -34 -9 -6 -5 -9 12 -9 18 0 21 -3 11 -9 -9 -6
-10 -11 -2 -15 13 -9 15 -56 2 -56 -5 0 -12 6 -15 13 -3 6 -4 3 -3 -8 2 -13 9
-19 20 -17 9 2 17 2 18 0 3 -20 6 -117 3 -100 -3 12 -12 22 -20 22 -16 0 -19
-16 -4 -25 6 -3 10 -24 10 -46 0 -21 4 -39 9 -39 5 0 11 -22 13 -49 1 -27 1
-49 -2 -49 -18 1 -23 -4 -11 -11 17 -11 16 -117 -1 -139 -10 -13 -10 -14 0 -8
9 5 12 -16 12 -97 0 -57 -3 -107 -7 -111 -9 -9 -4 -103 8 -134 6 -16 6 -29 -1
-37 -7 -8 -7 -15 -2 -19 6 -3 8 -25 6 -48 -2 -24 -4 -54 -4 -67 0 -13 -5 -30
-10 -36 -6 -7 -12 -40 -13 -74 -1 -33 -5 -61 -9 -61 -5 0 -8 -31 -8 -69 0 -73
-7 -104 -20 -96 -5 3 -5 -8 0 -23 10 -39 -2 -61 -24 -43 -14 12 -15 10 -9 -20
3 -19 10 -35 15 -37 4 -2 3 -12 -2 -23 -6 -11 -10 -26 -8 -33 2 -8 0 -14 -3
-13 -13 4 -37 -26 -32 -40 3 -8 2 -18 -3 -22 -16 -11 -37 -65 -35 -89 1 -13
-3 -29 -9 -37 -6 -7 -9 -31 -6 -55 3 -32 2 -39 -8 -31 -9 8 -13 7 -14 -4 -1
-8 -3 -22 -4 -30 -1 -8 -6 -15 -11 -15 -6 0 -7 -22 -4 -52 3 -30 2 -42 -2 -28
l-7 25 -8 -23 c-5 -15 -3 -29 6 -39 11 -14 11 -16 -4 -10 -12 4 -19 0 -23 -14
-4 -10 -12 -19 -18 -19 -8 0 -7 -3 2 -9 12 -7 11 -12 -1 -30 -8 -11 -19 -18
-24 -13 -5 4 0 -4 11 -17 11 -14 14 -21 8 -17 -7 4 -13 2 -13 -4 0 -6 -7 -19
-16 -28 -11 -10 -13 -17 -6 -20 8 -2 8 -7 -1 -17 -7 -7 -15 -11 -18 -9 -3 2
-4 -8 -1 -21 3 -20 1 -24 -11 -19 -12 4 -15 1 -12 -16 3 -15 0 -20 -9 -17 -9
4 -12 -3 -10 -23 2 -16 -3 -33 -12 -40 -9 -9 -13 -23 -9 -44 6 -36 -16 -73
-37 -60 -10 6 -10 4 1 -9 11 -14 11 -18 -2 -23 -9 -3 -13 -12 -10 -21 5 -13 1
-15 -17 -10 -17 4 -20 3 -11 -6 17 -17 13 -27 -9 -27 -12 0 -17 -5 -14 -13 2
-7 -2 -27 -11 -43 -8 -16 -15 -34 -15 -40 0 -6 -9 -19 -20 -29 -11 -10 -20
-23 -19 -29 3 -24 -1 -37 -10 -31 -6 3 -13 -10 -16 -29 -5 -23 -14 -36 -27
-39 -11 -3 -17 -10 -13 -16 3 -6 -1 -11 -10 -11 -9 0 -14 -4 -10 -9 3 -5 -1
-16 -10 -24 -8 -8 -16 -32 -18 -52 -2 -21 -11 -43 -19 -49 -8 -6 -13 -17 -10
-24 5 -15 -17 -44 -28 -37 -5 3 -6 -3 -3 -13 6 -24 -24 -55 -47 -49 -14 4 -17
-2 -16 -27 1 -21 -3 -30 -12 -28 -8 1 -11 -2 -7 -8 3 -5 -1 -13 -9 -16 -9 -3
-14 -10 -11 -14 3 -5 1 -11 -5 -15 -5 -3 -10 2 -11 12 0 11 -3 13 -6 5 -3 -7
1 -19 8 -28 10 -13 9 -16 -10 -21 -17 -4 -19 -8 -9 -14 10 -7 8 -9 -7 -10 -11
-1 -24 -1 -28 0 -5 1 -6 -3 -2 -9 3 -5 3 -16 -2 -22 -7 -13 -9 -18 -12 -37 0
-6 -10 -8 -21 -6 -15 3 -20 -2 -20 -16 0 -11 -4 -17 -10 -14 -5 3 -11 1 -11
-4 -3 -21 -4 -26 -12 -39 -5 -7 -13 -9 -19 -6 -6 4 -8 2 -4 -4 10 -17 -13 -25
-32 -10 -15 12 -16 11 -3 -4 11 -15 11 -19 -2 -24 -9 -3 -14 -14 -12 -25 3
-13 -2 -19 -16 -19 -10 0 -19 -7 -19 -15 0 -8 -9 -20 -20 -27 -11 -7 -20 -19
-20 -26 0 -7 -7 -15 -15 -18 -8 -4 -13 -9 -11 -13 3 -4 -9 -16 -25 -26 -16
-11 -29 -26 -29 -33 0 -8 -5 -10 -12 -6 -8 5 -9 2 -5 -10 4 -9 3 -14 -2 -11
-5 3 -12 1 -16 -5 -4 -6 -11 -8 -16 -5 -5 3 -6 -1 -3 -9 3 -9 1 -16 -6 -16 -6
0 -8 -5 -5 -10 4 -6 3 -10 -2 -9 -18 3 -57 -3 -47 -7 6 -3 9 -15 7 -29 -6 -27
-33 -43 -33 -19 0 8 5 12 10 9 6 -3 10 -1 10 4 0 19 -22 12 -27 -9 -3 -11 -9
-18 -13 -15 -5 3 -12 0 -16 -6 -4 -8 -3 -9 4 -5 7 4 12 0 12 -10 0 -10 -3 -14
-7 -11 -3 4 -18 -3 -31 -15 -14 -13 -22 -17 -17 -9 5 9 4 12 -3 7 -7 -4 -12
-13 -12 -21 0 -7 -7 -15 -15 -19 -8 -3 -14 -9 -13 -13 2 -5 -7 -21 -19 -37
-13 -16 -23 -26 -23 -22 0 4 -7 1 -15 -8 -8 -8 -15 -19 -15 -25 0 -5 -9 -13
-20 -16 -11 -3 -20 -11 -20 -16 0 -5 -5 -8 -12 -7 -7 2 -12 -2 -13 -8 0 -13
-78 -88 -96 -92 -8 -2 -16 -8 -18 -14 -8 -24 -43 -49 -59 -43 -13 5 -14 3 -5
-6 6 -6 9 -18 6 -26 -5 -12 -7 -12 -14 -1 -7 10 -9 9 -9 -5 0 -10 -4 -16 -9
-12 -6 3 -20 -5 -32 -17 -12 -13 -18 -17 -14 -9 5 9 4 12 -3 7 -7 -4 -12 -13
-12 -21 0 -8 -5 -17 -12 -21 -7 -4 -8 -3 -4 4 5 8 2 10 -9 6 -9 -4 -14 -8 -11
-11 5 -6 -42 -53 -54 -53 -5 0 -16 -10 -24 -22 -9 -12 -16 -19 -16 -14 0 5
-12 -4 -27 -20 -15 -16 -30 -29 -33 -29 -4 0 -18 -10 -31 -23 -13 -12 -33 -29
-44 -36 -19 -14 -19 -15 -1 -12 11 2 22 8 24 14 2 7 12 12 23 12 10 0 19 5 19
10 0 6 12 16 28 23 15 6 40 26 55 42 16 17 27 23 25 15 -4 -19 -21 -39 -29
-34 -4 2 -9 -3 -13 -11 -3 -8 -13 -15 -22 -15 -10 0 -14 -5 -10 -15 3 -8 2
-14 -2 -14 -16 2 -51 -14 -47 -21 6 -10 -60 -61 -69 -53 -3 4 -6 1 -6 -6 0 -7
-4 -9 -10 -6 -9 6 -14 -8 -11 -28 0 -4 -2 -7 -6 -6 -20 3 -53 -15 -53 -28 0
-8 -4 -12 -9 -8 -5 3 -12 1 -16 -5 -4 -6 -11 -8 -16 -5 -5 4 -9 -1 -9 -9 0 -9
-7 -16 -15 -16 -8 0 -15 -4 -15 -8 0 -5 -12 -15 -27 -23 -16 -8 -35 -22 -43
-32 -8 -10 -25 -19 -37 -20 -12 0 -20 -4 -17 -8 2 -4 -3 -12 -11 -19 -12 -10
-15 -10 -15 1 0 11 -2 11 -9 -1 -6 -8 -7 -18 -5 -22 3 -4 -4 -8 -15 -8 -12 0
-21 -3 -21 -8 0 -4 -9 -13 -21 -20 -13 -9 -18 -9 -14 -2 5 8 0 7 -13 -1 -18
-11 -19 -15 -6 -35 19 -27 6 -38 -21 -17 -16 13 -17 15 -2 10 9 -4 17 -2 17 3
0 6 -9 10 -20 10 -11 0 -20 -6 -20 -14 0 -8 -7 -17 -16 -20 -12 -5 -14 -3 -8
7 5 7 -2 1 -16 -14 -14 -15 -35 -30 -48 -34 -19 -5 -21 -9 -11 -21 10 -13 8
-13 -15 -4 -15 5 -25 6 -22 1 7 -11 -31 -51 -49 -51 -8 0 -15 -4 -15 -9 0 -5
-10 -13 -22 -17 -12 -3 -31 -15 -42 -25 -11 -11 -28 -19 -38 -19 -10 0 -17 -6
-16 -12 2 -7 -4 -12 -13 -10 -8 1 -25 -7 -38 -19 -12 -11 -29 -18 -37 -15 -8
3 -12 2 -9 -3 3 -5 -13 -20 -34 -32 -22 -12 -38 -26 -35 -30 3 -5 -2 -6 -10
-3 -9 3 -16 2 -16 -4 0 -5 -9 -12 -21 -15 -13 -4 -18 -10 -13 -18 5 -9 1 -11
-14 -7 -12 4 -24 2 -27 -3 -3 -5 -21 -16 -40 -25 -28 -13 -34 -21 -31 -40 3
-14 1 -22 -5 -19 -5 4 -7 11 -4 16 7 11 -18 12 -29 2 -7 -8 -11 -9 -37 -12 -5
0 -7 -6 -4 -12 5 -7 15 -5 30 5 21 14 24 14 30 -2 3 -9 3 -14 0 -10 -4 3 -18
0 -33 -8 -20 -10 -29 -11 -41 -1 -9 8 -12 8 -8 1 9 -15 -25 -54 -47 -54 -9 0
-16 -4 -16 -10 0 -5 -5 -10 -10 -10 -6 0 -22 -12 -35 -26 -13 -14 -32 -27 -42
-29 -10 -1 -17 -8 -15 -14 2 -9 -3 -9 -20 0 -13 6 -20 8 -16 4 10 -11 -11 -47
-25 -42 -7 2 -17 -3 -23 -11 -6 -8 -16 -12 -23 -8 -9 6 -9 12 1 24 12 15 11
16 -4 4 -9 -8 -14 -20 -11 -28 4 -10 -2 -17 -17 -21 -21 -6 -22 -7 -6 -19 15
-10 11 -12 -23 -10 -23 1 -46 7 -53 14 -9 9 -9 12 1 12 7 0 9 5 5 12 -5 8 -2
9 10 5 9 -4 14 -3 11 2 -3 5 3 12 14 16 16 5 32 16 79 55 6 6 12 8 12 5 0 -7
84 48 88 58 2 4 8 5 13 1 5 -3 9 0 9 5 0 16 -7 14 -53 -18 -23 -15 -52 -31
-64 -35 -13 -4 -23 -12 -23 -18 0 -6 -3 -9 -6 -5 -4 3 -28 -6 -55 -20 -33 -17
-49 -31 -49 -44 0 -11 -10 -24 -22 -29 -20 -9 -20 -10 -3 -8 11 2 26 -1 33 -5
17 -11 15 -30 -3 -23 -8 3 -15 1 -15 -5 0 -6 -4 -8 -9 -4 -5 3 -12 1 -16 -5
-4 -6 -10 -8 -15 -5 -4 2 -19 -4 -33 -15 -14 -11 -29 -20 -34 -20 -4 -1 -26
-9 -48 -20 -22 -10 -44 -16 -49 -13 -5 4 -6 1 -2 -5 4 -7 14 -12 22 -12 8 0
12 -5 9 -10 -5 -8 -11 -7 -20 0 -8 7 -19 9 -24 5 -7 -4 -9 1 -6 12 4 14 3 13
-5 -2 -16 -30 -65 -56 -79 -42 -13 13 -14 2 -2 -22 11 -20 5 -31 -27 -49 -17
-10 -27 -10 -37 -2 -16 13 -36 10 -52 -10 -6 -8 -15 -12 -19 -8 -4 5 -14 -1
-22 -13 -8 -11 -19 -18 -26 -16 -6 3 -20 -2 -31 -9 -18 -13 -16 -14 15 -9 19
3 29 3 23 -1 -7 -3 -13 -13 -14 -22 0 -11 -3 -12 -6 -5 -3 10 -8 9 -19 -2 -8
-8 -21 -12 -29 -9 -8 4 -18 -1 -21 -10 -8 -20 -51 -21 -56 -2 -3 12 -5 12 -16
0 -11 -12 -10 -14 3 -14 8 0 15 -5 15 -11 0 -6 -7 -9 -15 -6 -8 4 -17 2 -20
-3 -4 -6 -11 -10 -17 -10 -7 0 -6 5 1 14 9 11 9 16 0 22 -8 4 -9 3 -5 -4 4 -7
2 -13 -3 -13 -6 -1 -16 -2 -23 -3 -7 0 -17 -11 -23 -23 -9 -18 -14 -20 -25
-10 -7 7 -10 7 -7 2 3 -6 1 -17 -4 -25 -8 -13 -10 -13 -19 0 -9 13 -10 13 -10
0 0 -18 -107 -73 -115 -60 -4 6 3 10 14 10 25 0 36 16 15 24 -8 3 -12 2 -9 -4
3 -6 0 -10 -8 -10 -8 0 -21 -8 -28 -17 -10 -11 -10 -14 -1 -9 18 11 15 1 -5
-15 -12 -10 -15 -10 -9 -1 5 9 -1 12 -22 10 -19 -1 -28 -7 -25 -15 4 -10 -96
-12 -488 -13 -271 0 -495 -2 -497 -5 -3 -3 609 -4 1359 -2 750 1 1328 4 1285
7 l-80 5 139 115 c412 340 767 676 1105 1045 112 123 146 162 210 235 36 41
67 77 70 80 3 3 25 30 50 60 25 30 47 57 50 60 29 26 351 437 466 596 91 125
364 545 364 560 0 3 11 20 24 37 13 18 38 59 56 92 72 133 188 353 212 405 14
30 42 88 62 129 19 41 33 78 30 83 -3 4 -1 8 4 8 5 0 17 21 27 48 10 26 31 75
47 110 15 34 28 68 28 75 0 7 8 29 18 48 10 19 30 75 45 124 16 50 35 104 42
120 8 17 21 57 30 90 9 33 22 76 30 95 20 50 85 293 85 318 0 11 5 24 10 27 6
3 10 16 10 29 0 13 10 58 21 102 12 43 25 99 30 124 17 93 30 166 35 195 2 16
6 37 9 45 3 8 7 35 10 60 3 25 9 65 15 90 15 72 26 172 60 545 15 163 12 643
-5 843 -65 766 -292 1433 -689 2027 -165 247 -405 531 -459 542 -16 3 -31 12
-34 19 -3 8 -15 14 -27 14 -12 0 -31 6 -41 14 -11 8 -25 12 -32 9 -7 -3 -13 0
-13 5 0 6 -9 9 -20 7 -11 -2 -20 0 -20 6 0 5 -5 9 -11 9 -5 0 -7 -4 -4 -10 3
-5 2 -10 -4 -10 -5 0 -13 5 -16 10 -3 6 -21 10 -38 10 -18 0 -39 4 -47 10 -9
6 -20 5 -29 -3 -12 -9 -13 -9 -7 1 4 7 1 12 -9 12 -9 0 -13 5 -9 11 4 8 -3 9
-22 5 -19 -4 -36 -1 -49 8 -26 20 -35 20 -35 0 0 -8 -5 -12 -10 -9 -6 4 -8 11
-5 16 9 14 -29 11 -44 -3 -8 -7 -11 -8 -8 -3 3 6 -8 18 -24 27 -16 10 -29 13
-29 8 0 -6 -11 -5 -27 1 -15 6 -29 7 -30 2 -2 -4 -30 -6 -63 -5 -33 2 -58 7
-55 12 3 4 -4 6 -15 3 -12 -3 -22 1 -26 11 -3 9 -10 16 -16 16 -5 0 -7 -4 -3
-9z m-235 -31 c11 -7 1 -9 -35 -9 -40 1 -45 3 -25 9 35 11 43 11 60 0z m149
-6 c8 -7 -54 -2 -79 6 -17 6 -9 7 25 3 28 -3 52 -7 54 -9z m-399 -4 c0 -5 -9
-9 -20 -7 -31 5 -36 17 -7 17 15 0 27 -4 27 -10z m90 0 c-8 -5 -24 -9 -35 -9
l-20 0 20 9 c11 5 27 9 35 9 13 1 13 0 0 -9z m-257 -27 c-7 -2 -19 -2 -25 0
-7 3 -2 5 12 5 14 0 19 -2 13 -5z m2363 -2855 c3 -4 -1 -5 -10 -4 -8 1 -18 5
-22 8 -3 4 1 5 10 4 8 -1 18 -5 22 -8z m81 -520 c-3 -8 -6 -5 -6 6 -1 11 2 17
5 13 3 -3 4 -12 1 -19z m10 -400 c-3 -7 -5 -2 -5 12 0 14 2 19 5 13 2 -7 2
-19 0 -25z m18 -88 c-3 -5 -12 -10 -18 -10 -7 0 -6 4 3 10 19 12 23 12 15 0z
m-135 -880 c0 -5 -2 -10 -4 -10 -3 0 -8 5 -11 10 -3 6 -1 10 4 10 6 0 11 -4
11 -10z m-120 -434 c0 -2 -8 -10 -17 -17 -16 -13 -17 -12 -4 4 13 16 21 21 21
13z m-36 -71 c-4 -8 -8 -15 -10 -15 -2 0 -4 7 -4 15 0 8 4 15 10 15 5 0 7 -7
4 -15z m-274 -585 c0 -5 -5 -10 -11 -10 -5 0 -7 5 -4 10 3 6 8 10 11 10 2 0 4
-4 4 -10z m-1340 -1637 c-8 -3 -23 -12 -32 -21 -10 -8 -18 -12 -18 -7 0 12 33
34 50 34 13 -1 13 -1 0 -6z m-60 -37 c0 -2 -7 -9 -15 -16 -13 -11 -14 -10 -9
4 5 14 24 23 24 12z m-815 -626 c-3 -5 -12 -10 -18 -10 -7 0 -6 4 3 10 19 12
23 12 15 0z m-501 -315 c-4 -8 -11 -15 -16 -15 -6 0 -5 6 2 15 7 8 14 15 16
15 2 0 1 -7 -2 -15z m-664 -420 c-14 -17 -30 -20 -30 -6 0 5 8 12 18 14 9 3
19 5 21 6 2 0 -2 -6 -9 -14z m-100 -50 c0 -8 -7 -15 -15 -15 -13 0 -14 3 -3
15 16 18 18 18 18 0z m-51 -31 c-15 -18 -22 -13 -13 10 3 9 10 13 16 10 5 -3
4 -12 -3 -20z m-133 -75 c-15 -12 -23 -26 -19 -32 4 -7 -1 -6 -10 2 -18 14
-24 36 -7 26 6 -3 10 -1 10 6 0 7 3 10 6 6 4 -3 13 1 21 9 9 8 18 13 21 10 3
-3 -7 -15 -22 -27z m-296 -133 c0 -2 -7 -7 -16 -10 -8 -3 -12 -2 -9 4 6 10 25
14 25 6z"/>
<path d="M23257 15249 c4 -13 8 -18 11 -10 2 7 -1 18 -6 23 -8 8 -9 4 -5 -13z"/>
<path d="M23626 14757 c3 -10 9 -15 12 -12 3 3 0 11 -7 18 -10 9 -11 8 -5 -6z"/>
<path d="M23440 14513 c0 -4 5 -15 10 -23 8 -13 10 -13 10 2 0 9 -4 20 -10 23
-5 3 -10 3 -10 -2z"/>
<path d="M23630 14500 c0 -11 4 -20 9 -20 5 0 7 9 4 20 -3 11 -7 20 -9 20 -2
0 -4 -9 -4 -20z"/>
<path d="M23641 14454 c0 -11 3 -14 6 -6 3 7 2 16 -1 19 -3 4 -6 -2 -5 -13z"/>
<path d="M17393 14433 c31 -2 83 -2 115 0 31 2 5 3 -58 3 -63 0 -89 -1 -57 -3z"/>
<path d="M17035 14412 c-3 -4 -22 -5 -41 -3 -22 1 -34 -2 -34 -10 0 -7 -3 -9
-7 -6 -3 4 -14 0 -24 -9 -20 -18 -42 11 207 -263 456 -501 837 -931 983 -1109
42 -51 104 -128 139 -170 80 -97 100 -123 156 -197 25 -33 54 -69 64 -80 10
-11 29 -38 42 -60 13 -22 30 -44 37 -48 7 -4 20 -23 29 -42 9 -20 21 -32 27
-28 6 4 8 0 4 -10 -4 -10 5 -24 27 -42 18 -14 39 -41 46 -60 7 -19 17 -32 22
-29 4 3 8 -1 8 -8 0 -7 23 -44 50 -82 28 -38 48 -71 45 -74 -2 -3 3 -11 13
-19 9 -8 11 -11 3 -7 -9 5 -12 3 -7 -4 4 -7 13 -12 21 -12 8 0 17 -5 21 -12 5
-8 2 -9 -9 -5 -10 3 -17 2 -17 -3 0 -6 7 -10 15 -10 8 0 12 -6 9 -13 -3 -8 2
-20 11 -27 8 -7 15 -17 15 -22 0 -5 7 -16 15 -24 8 -9 15 -12 15 -7 0 5 -5 14
-12 21 -9 9 -9 12 -1 12 14 0 27 -36 19 -49 -3 -5 3 -20 15 -32 11 -13 18 -18
14 -11 -3 6 -1 12 4 12 6 0 11 -6 11 -14 0 -8 3 -16 8 -19 4 -2 1 -2 -6 0 -8
1 -12 -3 -9 -9 2 -7 11 -12 20 -10 20 3 31 -14 16 -24 -8 -5 -9 -3 -4 6 5 9 4
11 -3 6 -9 -5 -9 -13 -2 -27 6 -10 13 -19 16 -19 3 0 2 5 -2 12 -5 7 -3 8 5 4
7 -5 10 -15 6 -24 -3 -9 -3 -13 1 -10 10 11 46 -11 38 -23 -3 -6 2 -16 11 -23
16 -12 16 -13 0 -29 -21 -22 -7 -22 17 0 17 16 17 15 2 -16 -9 -18 -13 -35
-10 -38 3 -4 6 -1 6 5 0 18 27 15 34 -4 3 -8 2 -12 -4 -9 -6 3 -10 1 -10 -4 0
-6 7 -11 16 -11 8 0 12 -4 9 -10 -7 -12 22 -70 35 -70 6 0 9 -3 9 -7 -4 -27 3
-55 19 -71 10 -10 24 -33 32 -52 16 -40 49 -80 51 -62 2 17 4 23 18 57 34 83
94 281 137 457 15 63 45 234 65 373 20 132 17 568 -4 715 -38 270 -92 485
-177 715 -85 227 -221 505 -247 505 -8 0 -12 4 -8 9 3 5 1 12 -5 16 -6 4 -8
10 -5 14 2 5 -5 17 -18 27 -18 16 -19 16 -8 2 12 -16 11 -18 -3 -18 -9 0 -16
5 -16 11 0 5 -4 7 -10 4 -5 -3 -10 2 -10 12 0 14 -2 15 -9 4 -7 -10 -9 -11
-13 0 -5 15 -58 19 -58 4 0 -5 -4 -4 -9 4 -6 10 -19 12 -42 8 l-34 -7 25 16
c25 15 25 15 1 8 -15 -4 -21 -2 -17 4 4 7 -3 8 -24 2 -19 -5 -28 -5 -25 1 9
14 -23 23 -38 10 -10 -8 -17 -7 -25 1 -7 7 -12 8 -12 3 0 -6 -5 -3 -11 5 -8
12 -12 12 -16 2 -3 -8 -9 -10 -16 -3 -7 5 -21 11 -32 14 -19 4 -18 5 2 6 43 2
30 16 -15 16 -32 0 -46 -4 -45 -12 2 -9 -4 -10 -21 -3 -13 5 -27 6 -30 3 -3
-4 -6 -1 -6 4 0 6 6 14 13 16 7 3 5 6 -5 6 -11 1 -18 -6 -19 -16 0 -11 -3 -13
-6 -5 -2 6 -17 12 -31 12 -15 0 -34 4 -41 9 -10 7 0 8 30 6 l44 -4 -40 9 c-22
6 -56 12 -75 15 -33 4 -34 4 -5 -4 l30 -9 -27 -1 c-15 0 -30 4 -33 10 -4 5
-12 8 -18 6 -7 -2 -25 2 -41 10 -15 8 -26 10 -22 5 3 -5 -21 -9 -58 -8 -35 1
-59 4 -53 8 7 4 -8 8 -33 8 -34 0 -41 3 -30 11 11 7 4 8 -24 3 -32 -6 -37 -4
-31 7 8 12 6 12 -8 1 -9 -8 -20 -11 -26 -8 -8 5 -229 10 -256 6 -5 -1 -26 -2
-45 -1 -19 0 -107 1 -195 2 -94 1 -148 5 -130 9 26 7 23 8 -17 7 -27 0 -48 -4
-48 -9 0 -5 -12 -7 -27 -4 -40 9 -241 15 -248 8z m1915 -192 c0 -5 -8 -10 -17
-10 -15 0 -16 2 -3 10 19 12 20 12 20 0z m67 -46 c-3 -3 -12 -4 -19 -1 -8 3
-5 6 6 6 11 1 17 -2 13 -5z"/>
<path d="M17643 14413 c15 -2 39 -2 55 0 15 2 2 4 -28 4 -30 0 -43 -2 -27 -4z"/>
<path d="M16910 14389 c0 -5 5 -7 10 -4 6 3 10 8 10 11 0 2 -4 4 -10 4 -5 0
-10 -5 -10 -11z"/>
<path d="M15853 13696 c96 -94 230 -220 307 -290 55 -50 162 -151 405 -386
191 -184 214 -204 220 -198 25 25 48 658 24 658 -5 0 -8 -4 -4 -9 3 -6 -3 -9
-13 -8 -16 1 -28 27 -13 27 4 0 12 9 19 20 13 21 12 21 -19 5 -17 -10 -34 -13
-38 -8 -3 4 -12 8 -18 9 -7 1 -22 2 -34 3 -11 0 -17 6 -14 11 3 6 -4 10 -18
10 -14 0 -29 6 -35 13 -7 8 -37 12 -85 12 -42 0 -74 2 -71 6 2 4 -8 9 -21 12
-14 2 -28 0 -31 -4 -3 -5 -17 -8 -32 -8 -27 1 -27 1 3 8 28 7 27 8 -23 19 -29
7 -60 12 -68 12 -8 0 -13 4 -10 8 3 5 -8 6 -25 4 -16 -2 -45 4 -67 14 -20 10
-43 17 -49 16 -7 -2 -13 1 -13 6 0 5 -22 8 -49 8 -27 -1 -47 2 -44 7 2 4 -1 7
-7 7 -6 0 -8 5 -4 12 5 7 2 9 -7 6 -8 -3 -26 0 -40 8 l-24 13 28 1 c16 0 37
-5 48 -10 12 -7 19 -7 19 -1 0 11 -50 26 -123 37 -43 6 -47 5 -41 -12 5 -17 4
-17 -8 1 -7 11 -19 20 -25 21 -29 2 -34 4 -29 12 3 5 -8 8 -25 8 -28 0 -26 -3
54 -80z m12 34 c3 -5 1 -10 -4 -10 -6 0 -11 5 -11 10 0 6 2 10 4 10 3 0 8 -4
11 -10z m65 -5 c10 -12 10 -15 -2 -15 -8 0 -15 7 -15 15 0 8 1 15 2 15 2 0 8
-7 15 -15z m-10 -35 c-14 -9 -62 -1 -55 9 2 4 18 6 36 3 18 -3 26 -8 19 -12z
m35 0 c3 -5 1 -10 -4 -10 -6 0 -11 5 -11 10 0 6 2 10 4 10 3 0 8 -4 11 -10z
m32 -56 c-3 -3 -12 -4 -19 -1 -8 3 -5 6 6 6 11 1 17 -2 13 -5z m63 -4 c0 -6
11 -8 25 -4 15 4 25 2 25 -5 0 -6 10 -11 22 -11 12 0 19 -2 16 -5 -10 -10 -97
8 -102 21 -3 8 -1 14 4 14 6 0 10 -5 10 -10z m300 -52 c0 -6 -6 -5 -15 2 -8 7
-15 14 -15 16 0 2 7 1 15 -2 8 -4 15 -11 15 -16z m-113 6 c-3 -3 -12 -4 -19
-1 -8 3 -5 6 6 6 11 1 17 -2 13 -5z m367 -49 c-4 -8 -8 -15 -10 -15 -2 0 -4 7
-4 15 0 8 4 15 10 15 5 0 7 -7 4 -15z m-94 -15 c11 -7 5 -8 -20 -4 -43 8 -51
14 -19 14 13 0 31 -5 39 -10z m223 -34 c17 -4 27 -13 26 -24 0 -9 -3 -12 -5
-6 -2 5 -19 9 -36 8 -18 -1 -41 4 -51 11 -18 13 -18 13 0 17 10 2 23 3 28 2 6
-1 22 -5 38 -8z m-100 -3 c-7 -2 -19 -2 -25 0 -7 3 -2 5 12 5 14 0 19 -2 13
-5z m177 -58 c0 -8 -2 -15 -4 -15 -2 0 -6 7 -10 15 -3 8 -1 15 4 15 6 0 10 -7
10 -15z"/>
<path d="M16060 13700 c0 -5 7 -10 15 -10 8 0 15 5 15 10 0 6 -7 10 -15 10 -8
0 -15 -4 -15 -10z"/>
<path d="M16115 13700 c-3 -5 -1 -10 4 -10 6 0 11 5 11 10 0 6 -2 10 -4 10 -3
0 -8 -4 -11 -10z"/>
<path d="M20700 12560 c-9 -6 -10 -10 -3 -10 6 0 15 5 18 10 8 12 4 12 -15 0z"/>
<path d="M20825 12019 c6 -30 13 -35 28 -19 9 10 9 11 0 6 -9 -5 -13 0 -13 13
0 12 -4 21 -9 21 -6 0 -8 -10 -6 -21z"/>
<path d="M19040 11680 c0 -5 7 -7 15 -4 8 4 15 8 15 10 0 2 -7 4 -15 4 -8 0
-15 -4 -15 -10z"/>
<path d="M22127 10695 c-4 -8 -2 -17 3 -20 6 -4 10 3 10 14 0 25 -6 27 -13 6z"/>
<path d="M12090 10184 c0 -8 5 -12 10 -9 6 4 8 11 5 16 -9 14 -15 11 -15 -7z"/>
<path d="M11717 10148 c-7 -25 0 -41 15 -32 6 4 5 10 -3 16 -10 7 -5 8 14 3
17 -3 26 -2 23 4 -4 5 2 12 11 15 11 3 8 4 -7 3 -14 -1 -30 2 -36 6 -7 4 -14
-2 -17 -15z"/>
<path d="M11861 10161 c-8 -5 -20 -7 -28 -4 -16 6 -14 -18 2 -29 6 -5 5 -8 -2
-8 -7 0 -13 -7 -13 -16 0 -11 -6 -15 -20 -11 -16 4 -18 2 -10 -13 5 -10 22
-21 37 -24 16 -4 51 -17 78 -30 52 -25 56 -27 225 -101 182 -81 280 -127 440
-207 85 -43 155 -78 156 -78 5 0 24 107 34 193 19 160 8 225 -39 228 -9 1 -5
5 9 9 15 5 19 8 8 9 -9 1 -23 7 -30 14 -16 15 -33 19 -75 19 -21 0 -30 4 -26
11 4 6 -2 8 -15 5 -12 -3 -28 1 -39 11 -12 10 -39 17 -78 18 -33 1 -109 4
-170 7 -79 3 -105 2 -92 -6 10 -5 27 -8 38 -5 10 3 17 1 13 -4 -3 -5 -19 -9
-35 -9 -17 0 -28 -4 -25 -8 3 -5 -1 -9 -9 -9 -8 0 -15 5 -15 11 0 8 -3 7 -8 0
-4 -7 -45 -14 -92 -17 -47 -4 -86 -6 -87 -7 -12 -1 1 -20 13 -20 13 0 14 -3 4
-15 -17 -20 -50 -2 -51 28 0 15 -2 17 -6 7 -9 -23 -25 -29 -40 -15 -18 19 -16
25 9 25 12 0 18 3 15 6 -11 11 -52 10 -59 -1 -5 -6 -8 -3 -8 8 0 9 6 17 14 17
8 0 18 5 21 10 8 12 -25 13 -44 1z m535 -19 c-10 -2 -22 0 -28 6 -6 6 0 7 19
4 21 -5 23 -7 9 -10z m-66 -6 c0 -3 -4 -8 -10 -11 -5 -3 -10 -1 -10 4 0 6 5
11 10 11 6 0 10 -2 10 -4z m165 -6 c-3 -6 4 -10 17 -10 21 -1 22 -1 4 -11 -14
-9 -20 -8 -27 2 -7 12 -3 29 7 29 3 0 2 -4 -1 -10z m205 -48 c0 -5 -7 -9 -15
-9 -8 0 -12 4 -9 9 3 4 9 8 15 8 5 0 9 -4 9 -8z"/>
<path d="M12030 10141 c0 -6 4 -13 10 -16 6 -3 7 1 4 9 -7 18 -14 21 -14 7z"/>
<path d="M11972 10120 c0 -14 2 -19 5 -12 2 6 2 18 0 25 -3 6 -5 1 -5 -13z"/>
<path d="M11747 10105 c-6 -15 10 -32 20 -21 4 3 0 6 -7 6 -9 0 -7 5 6 15 16
12 17 14 3 15 -9 0 -19 -7 -22 -15z"/>
<path d="M12760 10056 c0 -9 5 -16 10 -16 6 0 10 4 10 9 0 6 -4 13 -10 16 -5
3 -10 -1 -10 -9z"/>
<path d="M23935 9950 c-3 -5 -1 -10 4 -10 6 0 11 5 11 10 0 6 -2 10 -4 10 -3
0 -8 -4 -11 -10z"/>
<path d="M20457 9734 c-4 -4 -7 -14 -7 -23 0 -11 3 -12 11 -4 6 6 10 16 7 23
-2 6 -7 8 -11 4z"/>
<path d="M19921 8841 c-7 -5 -9 -11 -4 -14 5 -3 15 -2 22 2 7 5 9 11 4 14 -5
3 -15 2 -22 -2z"/>
<path d="M18673 7615 c-17 -19 -16 -26 1 -19 15 6 30 34 18 34 -4 -1 -13 -7
-19 -15z"/>
<path d="M18627 7583 c-10 -10 -8 -23 4 -23 5 0 8 4 5 9 -4 5 0 12 6 14 7 3 8
6 2 6 -6 1 -14 -2 -17 -6z"/>
<path d="M20470 7579 c0 -5 5 -7 10 -4 6 3 10 8 10 11 0 2 -4 4 -10 4 -5 0
-10 -5 -10 -11z"/>
<path d="M20161 7272 c-45 -44 -36 -50 11 -6 20 18 34 35 30 36 -4 2 -22 -11
-41 -30z"/>
<path d="M18105 7210 c-3 -6 1 -7 9 -4 18 7 21 14 7 14 -6 0 -13 -4 -16 -10z"/>
<path d="M18056 7177 c-16 -12 -16 -13 2 -13 10 0 19 6 19 13 0 7 -1 13 -2 13
-1 0 -9 -6 -19 -13z"/>
<path d="M20040 7150 c-9 -6 -10 -10 -3 -10 6 0 15 5 18 10 8 12 4 12 -15 0z"/>
<path d="M18000 7146 c0 -2 7 -7 16 -10 8 -3 12 -2 9 4 -6 10 -25 14 -25 6z"/>
<path d="M17805 7020 c-3 -5 1 -10 10 -10 9 0 13 5 10 10 -3 6 -8 10 -10 10
-2 0 -7 -4 -10 -10z"/>
<path d="M17740 6990 c0 -5 -6 -10 -13 -10 -8 0 -22 -9 -32 -20 -21 -23 -11
-27 12 -5 8 8 19 13 24 10 5 -4 9 -2 9 3 0 5 10 14 23 20 l22 11 -22 0 c-13 1
-23 -3 -23 -9z"/>
<path d="M15700 6876 c0 -9 5 -16 10 -16 6 0 10 4 10 9 0 6 -4 13 -10 16 -5 3
-10 -1 -10 -9z"/>
<path d="M15687 6844 c2 -7 11 -10 19 -7 19 7 18 10 -5 16 -13 3 -18 1 -14 -9z"/>
<path d="M15645 6840 c3 -4 -4 -19 -15 -31 -11 -13 -19 -21 -20 -17 0 4 -11 3
-25 -2 -18 -7 -25 -6 -25 3 0 8 -3 8 -9 -2 -7 -11 -9 -11 -14 0 -3 8 -4 4 -4
-8 1 -17 4 -19 14 -11 25 20 13 -8 -12 -30 -31 -27 -49 -28 -42 -3 3 15 0 17
-17 13 -11 -3 -15 -7 -8 -10 19 -6 14 -18 -7 -19 -14 -1 -18 3 -15 15 5 14 2
13 -10 -2 -9 -11 -16 -15 -16 -9 0 11 -103 -33 -108 -46 -1 -4 -15 -6 -31 -3
-21 3 -33 -2 -45 -19 -10 -15 -16 -18 -16 -9 -1 11 -4 10 -15 -4 -8 -11 -22
-21 -32 -22 -9 -2 -19 -8 -23 -14 -4 -7 -10 -11 -14 -11 -24 3 -36 -1 -30 -10
3 -6 -1 -10 -12 -9 -34 4 -45 0 -38 -12 5 -8 0 -9 -14 -6 -12 4 -20 2 -16 -3
4 -8 -7 -13 -27 -11 -3 0 -11 -8 -18 -19 -11 -18 -9 -21 8 -26 12 -3 19 -9 16
-13 -7 -11 -74 6 -88 22 -7 7 -11 11 -10 9 2 -2 -5 -10 -15 -18 -16 -12 -16
-13 3 -7 19 5 19 5 1 -6 -14 -9 -25 -9 -45 -1 -23 10 -24 10 -8 -3 22 -17 7
-30 -23 -21 -14 4 -20 2 -18 -6 2 -7 -6 -13 -17 -14 -11 0 -29 -6 -40 -12 -11
-5 -26 -8 -34 -5 -8 3 -11 0 -7 -6 4 -7 -4 -14 -21 -18 -15 -4 -59 -20 -96
-35 -38 -16 -89 -30 -115 -32 -55 -5 -132 -28 -132 -40 0 -5 -4 -6 -9 -3 -5 3
-28 -1 -51 -9 -23 -8 -47 -12 -53 -8 -5 3 -7 2 -4 -3 5 -9 -82 -42 -92 -35 -2
1 -7 -2 -10 -8 -4 -6 -19 -12 -33 -13 -17 -1 -24 -7 -21 -15 3 -9 0 -11 -10
-7 -9 3 -24 1 -34 -5 -10 -6 -12 -11 -5 -11 6 0 12 -4 12 -9 0 -5 -14 -8 -31
-7 -17 1 -37 -4 -45 -11 -7 -8 -27 -15 -43 -16 -16 -1 -27 -5 -24 -9 4 -8 -11
-12 -34 -9 -6 1 -14 -3 -18 -9 -3 -5 -15 -10 -25 -10 -10 0 -23 -7 -28 -16 -5
-9 -12 -15 -16 -14 -15 4 -66 -12 -66 -21 0 -6 -4 -8 -8 -5 -9 6 -109 -30
-128 -45 -5 -4 -62 -10 -125 -12 -107 -3 -105 -3 39 -5 84 -1 152 2 152 7 0 5
18 5 42 -1 56 -12 593 -4 610 9 7 6 99 54 204 106 166 84 288 149 489 262 192
108 645 400 645 416 0 5 5 8 12 7 7 -2 13 3 14 10 1 6 2 16 3 21 0 5 9 11 19
13 14 3 13 5 -6 10 -12 3 -20 3 -17 -2z m-229 -152 c-1 -30 -15 -39 -40 -26
-17 9 -18 11 -3 20 10 5 22 6 27 3 6 -3 7 1 4 9 -3 9 -2 16 4 16 5 0 9 -10 8
-22z m-169 -50 c-3 -8 -6 -5 -6 6 -1 11 2 17 5 13 3 -3 4 -12 1 -19z m99 -8
c1 -23 1 -23 -12 -5 -17 23 -18 38 -1 33 6 -3 13 -15 13 -28z m-59 -27 c3 -8
-9 -12 -37 -11 -39 0 -40 1 -18 13 27 16 50 15 55 -2z m-1062 -405 c-49 -15
-87 -19 -80 -8 3 6 15 10 26 10 10 0 19 4 19 8 0 5 15 6 33 4 l32 -5 -30 -9z
m-95 -29 c0 -11 -27 -12 -34 -1 -2 4 4 9 15 9 10 1 19 -2 19 -8z m-50 -15 c0
-8 -19 -13 -24 -6 -3 5 1 9 9 9 8 0 15 -2 15 -3z m-43 -18 c0 -8 -6 -12 -14
-9 -8 3 -24 1 -36 -5 -25 -12 -88 -32 -100 -32 -4 1 -15 -6 -23 -15 -19 -19
-30 -19 -37 -1 -4 10 -1 13 7 10 7 -3 30 4 50 15 20 12 47 21 59 21 13 0 32 7
43 15 24 18 51 19 51 1z m-277 -91 c0 -8 -7 -15 -15 -15 -13 0 -14 3 -3 15 16
18 18 18 18 0z m30 5 c0 -5 -4 -10 -10 -10 -5 0 -10 5 -10 10 0 6 5 10 10 10
6 0 10 -4 10 -10z"/>
<path d="M15660 6809 c0 -5 5 -7 10 -4 6 3 10 8 10 11 0 2 -4 4 -10 4 -5 0
-10 -5 -10 -11z"/>
<path d="M17415 6760 c-3 -6 1 -7 9 -4 18 7 21 14 7 14 -6 0 -13 -4 -16 -10z"/>
<path d="M17360 6735 c-7 -8 -8 -15 -2 -15 5 0 15 7 22 15 7 8 8 15 2 15 -5 0
-15 -7 -22 -15z"/>
<path d="M21885 6639 c-4 -6 -5 -12 -2 -15 2 -3 7 2 10 11 7 17 1 20 -8 4z"/>
<path d="M17056 6564 c-5 -14 -4 -15 9 -4 17 14 19 20 6 20 -5 0 -12 -7 -15
-16z"/>
<path d="M17020 6550 c0 -5 5 -10 10 -10 6 0 10 5 10 10 0 6 -4 10 -10 10 -5
0 -10 -4 -10 -10z"/>
<path d="M14943 6520 c-1 -11 4 -20 10 -20 7 0 13 9 14 20 1 11 -4 20 -10 20
-7 0 -13 -9 -14 -20z"/>
<path d="M16739 6333 c-1 -5 -1 -11 0 -15 0 -4 -6 -5 -14 -2 -15 6 -21 -11 -7
-19 10 -7 53 29 45 37 -9 8 -23 8 -24 -1z"/>
<path d="M21596 6293 c-6 -14 -5 -15 5 -6 7 7 10 15 7 18 -3 3 -9 -2 -12 -12z"/>
<path d="M16520 6222 c0 -7 -3 -11 -7 -10 -13 3 -53 -13 -53 -21 0 -5 11 -6
25 -4 26 6 52 30 41 40 -3 3 -6 1 -6 -5z"/>
<path d="M7998 5983 c320 -2 844 -2 1165 0 320 1 58 2 -583 2 -641 0 -903 -1
-582 -2z"/>
<path d="M10098 5983 c12 -2 32 -2 45 0 12 2 2 4 -23 4 -25 0 -35 -2 -22 -4z"/>
<path d="M10483 5983 c120 -2 314 -2 430 0 117 1 19 2 -218 2 -236 0 -332 -1
-212 -2z"/>
<path d="M11753 5983 c15 -2 37 -2 50 0 12 2 0 4 -28 4 -27 0 -38 -2 -22 -4z"/>
<path d="M12123 5983 c71 -2 183 -2 250 0 67 1 10 3 -128 3 -137 0 -192 -2
-122 -3z"/>
<path d="M13003 5983 c9 -2 25 -2 35 0 9 3 1 5 -18 5 -19 0 -27 -2 -17 -5z"/>
<path d="M14533 5983 c86 -2 228 -2 315 0 86 1 15 3 -158 3 -173 0 -244 -2
-157 -3z"/>
<path d="M17968 5983 c34 -2 88 -2 120 0 31 2 3 3 -63 3 -66 0 -92 -1 -57 -3z"/>
</g>
</svg>
