<?xml version="1.0" standalone="no"?>
<!DOCTYPE svg PUBLIC "-//W3C//DTD SVG 20010904//EN"
 "http://www.w3.org/TR/2001/REC-SVG-20010904/DTD/svg10.dtd">
<svg version="1.0" xmlns="http://www.w3.org/2000/svg"
 width="512.000000pt" height="512.000000pt" viewBox="0 0 512.000000 512.000000"
 preserveAspectRatio="xMidYMid meet">
<metadata>
Created by potrace 1.14, written by Peter Selinger 2001-2017
</metadata>
<g transform="translate(0.000000,512.000000) scale(0.100000,-0.100000)"
fill="#000000" stroke="none">
<path d="M2496 5003 c-1 -2 -36 -4 -77 -5 -41 -2 -77 -7 -81 -13 -5 -6 -8 -5
-8 3 0 9 -5 10 -17 4 -10 -5 -33 -8 -51 -7 -18 0 -35 -3 -38 -7 -3 -4 -11 -5
-19 -1 -8 3 -15 1 -15 -3 0 -5 -20 -9 -45 -8 -25 0 -45 -2 -45 -6 0 -4 -6 -7
-12 -7 -11 0 -64 -9 -103 -17 -5 -1 -16 -5 -23 -10 -7 -4 -16 -6 -18 -3 -3 3
-21 -1 -40 -9 -19 -8 -36 -14 -39 -14 -3 0 -7 -1 -10 -1 -3 -1 -9 -3 -15 -4
-5 -1 -12 -4 -15 -5 -3 -1 -9 -4 -15 -5 -5 -1 -11 -3 -12 -5 -4 -2 -39 -11
-60 -14 -9 -1 -23 -7 -30 -14 -8 -6 -24 -13 -35 -15 -12 -2 -27 -8 -35 -14 -7
-6 -21 -9 -31 -8 -9 2 -15 -1 -11 -6 3 -5 1 -9 -5 -9 -5 0 -20 -4 -33 -9 -13
-5 -27 -9 -32 -9 -5 0 -12 -4 -15 -9 -3 -4 -43 -26 -88 -48 -45 -21 -79 -43
-77 -47 3 -5 2 -7 -3 -6 -12 3 -53 -12 -53 -21 0 -4 -18 -15 -40 -25 -22 -10
-40 -22 -40 -27 0 -6 -4 -8 -9 -5 -5 3 -12 -1 -15 -10 -3 -8 -10 -13 -15 -9
-5 3 -16 -4 -24 -15 -7 -11 -17 -17 -20 -13 -4 3 -7 1 -7 -5 0 -7 -7 -12 -15
-12 -8 0 -15 -4 -15 -8 0 -4 -18 -19 -39 -32 -21 -14 -37 -28 -34 -32 2 -5 0
-8 -4 -8 -13 0 -48 -28 -107 -85 -28 -27 -54 -48 -59 -47 -4 1 -7 -5 -7 -15 0
-9 -3 -13 -7 -10 -3 4 -16 -7 -28 -23 -12 -16 -24 -27 -28 -24 -3 3 -8 -4 -12
-15 -3 -12 -11 -19 -16 -16 -5 4 -9 2 -9 -3 0 -6 -13 -25 -29 -44 -61 -69 -71
-81 -71 -90 0 -5 -4 -6 -10 -3 -6 3 -10 0 -10 -7 0 -7 -9 -24 -20 -38 -49 -60
-102 -138 -117 -167 -8 -18 -19 -33 -23 -33 -8 0 -23 -38 -21 -52 1 -5 -3 -8
-7 -8 -9 0 -29 -37 -30 -54 0 -5 -4 -12 -9 -15 -11 -7 -55 -97 -53 -107 1 -4
-3 -10 -10 -14 -6 -4 -13 -13 -14 -21 -4 -22 -25 -71 -41 -100 -8 -14 -12 -29
-8 -32 3 -4 1 -13 -6 -21 -11 -13 -20 -42 -24 -76 -1 -8 -6 -18 -10 -21 -10
-8 -56 -187 -49 -194 3 -3 0 -5 -7 -5 -7 0 -9 -4 -6 -10 3 -5 1 -19 -5 -30 -8
-15 -8 -20 2 -20 8 0 9 -3 3 -8 -13 -9 -15 -17 -30 -137 -3 -22 -8 -58 -11
-80 -3 -22 -5 -49 -4 -60 1 -11 1 -24 0 -30 -6 -59 -4 -308 3 -312 4 -2 3 -11
-4 -19 -6 -8 -7 -14 -2 -14 8 0 16 -66 15 -122 -1 -10 3 -18 9 -18 5 0 9 -5 9
-11 0 -5 -5 -7 -11 -3 -8 4 -8 0 0 -15 7 -11 12 -37 13 -56 1 -19 4 -35 8 -35
4 0 7 -10 7 -22 1 -50 3 -59 15 -52 7 4 8 3 4 -5 -8 -13 24 -154 37 -159 4 -2
7 -17 7 -32 0 -16 4 -32 10 -35 5 -3 10 -15 10 -26 0 -10 4 -19 9 -19 4 0 8
-8 8 -18 0 -35 3 -43 15 -36 7 5 9 2 5 -8 -3 -9 -3 -19 1 -23 4 -4 7 -10 8
-13 4 -24 28 -72 36 -72 5 0 7 -4 4 -9 -7 -10 16 -61 27 -61 5 0 6 -4 2 -9 -3
-5 2 -16 11 -25 8 -9 13 -20 10 -25 -3 -5 1 -12 10 -15 9 -4 14 -9 10 -13 -3
-3 0 -13 8 -22 8 -9 16 -22 18 -30 2 -8 11 -23 20 -33 10 -10 18 -25 18 -33 0
-8 5 -15 10 -15 6 0 10 -7 10 -15 0 -8 5 -15 11 -15 5 0 8 -4 5 -8 -3 -5 4
-15 15 -22 10 -8 19 -20 19 -27 0 -7 5 -13 11 -13 5 0 7 -4 4 -10 -3 -5 3 -15
15 -22 11 -7 20 -18 20 -25 0 -7 5 -13 12 -13 6 0 9 -3 5 -6 -3 -3 9 -21 28
-39 18 -19 31 -36 28 -39 -3 -3 2 -8 11 -12 9 -3 16 -10 16 -14 0 -12 63 -75
73 -72 7 2 11 -13 8 -30 0 -5 3 -8 8 -8 5 0 43 -33 85 -72 103 -99 156 -146
156 -139 0 3 5 -2 11 -11 5 -10 17 -18 24 -18 8 0 15 -5 15 -11 0 -5 4 -7 10
-4 5 3 10 -1 10 -9 0 -9 6 -16 13 -16 6 0 28 -14 47 -30 19 -16 40 -30 46 -30
5 0 19 -8 30 -17 21 -19 56 -40 114 -69 19 -10 37 -20 40 -23 15 -17 43 -35
36 -23 -4 7 8 3 26 -8 39 -24 90 -45 101 -42 4 1 7 -2 7 -7 0 -5 15 -14 33
-21 17 -7 45 -18 62 -25 16 -8 33 -11 37 -9 4 3 8 0 8 -5 0 -6 9 -11 19 -11
11 0 23 -5 26 -10 4 -6 10 -8 15 -5 5 3 17 1 27 -4 26 -14 56 -24 73 -25 8 -1
20 -5 27 -9 6 -4 23 -8 37 -9 14 -1 26 -5 26 -8 0 -3 17 -7 37 -8 21 -2 40 -6
43 -10 3 -4 23 -8 44 -9 22 -2 42 -6 45 -10 3 -5 23 -8 43 -8 21 0 38 -4 38
-8 0 -5 5 -5 10 -2 6 4 16 3 23 -2 7 -4 32 -8 57 -8 25 0 48 -4 52 -10 5 -6 8
-5 8 3 0 9 5 10 19 2 26 -13 34 -13 25 3 -6 9 -4 9 7 1 18 -14 316 -15 343 -2
14 8 17 7 11 -3 -6 -9 -3 -10 11 -5 10 5 37 10 59 12 96 8 151 17 163 26 8 7
12 7 12 -1 0 -8 5 -9 19 -1 11 5 30 10 43 10 13 0 30 6 37 13 11 10 12 9 6 -3
-8 -13 -6 -13 8 -2 9 8 29 15 44 17 28 3 66 12 71 15 1 2 7 4 12 5 6 1 12 4
15 5 7 4 15 5 57 14 21 5 36 11 34 15 -3 4 4 8 15 9 43 4 49 6 49 14 0 5 4 7
8 4 5 -3 20 1 35 9 14 7 28 11 31 7 3 -3 6 0 6 6 0 7 11 12 25 12 14 0 25 5
25 10 0 6 9 10 20 10 11 0 20 5 20 12 0 6 3 9 6 5 4 -3 19 0 35 9 16 8 32 14
35 13 4 0 10 4 14 11 4 6 14 12 22 14 9 1 24 8 33 16 9 8 24 15 33 17 9 1 18
7 20 12 2 6 9 11 15 11 6 0 19 8 30 18 13 10 17 11 12 3 -5 -9 2 -7 18 5 15
10 27 22 27 27 0 4 9 7 20 7 11 0 23 7 26 15 4 8 12 15 19 15 7 0 15 3 17 8 2
4 22 20 46 36 23 16 53 39 67 52 14 13 25 20 25 17 0 -3 9 4 20 17 11 13 20
20 20 15 0 -4 10 4 21 19 12 15 23 25 25 23 6 -6 164 153 164 164 0 6 3 8 8 6
4 -3 13 1 20 9 7 8 11 14 8 14 -2 0 8 13 22 28 63 67 112 128 112 140 0 7 5
10 10 7 6 -3 10 1 10 9 0 9 4 16 10 16 5 0 12 11 16 25 3 14 10 22 15 19 8 -4
10 0 9 21 0 3 11 18 25 33 14 15 25 32 25 39 0 7 3 13 8 13 4 0 16 18 26 40
11 22 23 40 28 40 4 0 8 3 7 8 -2 13 13 52 20 52 4 0 13 16 20 35 7 19 17 35
23 35 6 0 8 3 5 6 -3 4 -1 16 5 28 7 11 11 24 10 29 -1 4 3 7 8 7 6 0 10 9 10
20 0 11 4 20 8 20 5 0 9 6 9 13 1 19 37 112 46 115 4 2 7 13 7 23 0 11 4 28
10 38 5 10 11 29 14 42 17 74 30 119 36 119 3 0 6 12 5 28 0 15 3 29 7 32 4 3
8 22 10 43 1 20 6 37 11 37 5 0 5 6 -1 13 -7 8 -6 18 3 31 8 10 11 24 9 31 -3
7 -1 23 6 34 8 15 8 21 0 21 -6 0 -8 5 -3 13 8 12 9 21 14 97 1 25 6 55 10 68
6 15 5 22 -4 22 -8 0 -8 3 2 9 9 6 10 11 2 15 -6 4 -7 16 -3 29 6 18 8 172 2
172 -1 0 -3 21 -5 47 -2 33 1 46 9 41 6 -4 2 4 -9 17 -12 14 -14 20 -5 15 12
-7 13 -6 5 6 -6 8 -10 29 -10 47 0 17 -2 32 -5 32 -3 0 -6 17 -6 38 -2 48 -7
73 -18 91 -7 11 -6 12 5 6 11 -7 12 -6 3 6 -6 8 -14 30 -18 49 -3 19 -7 44 -9
55 -2 11 -7 30 -11 42 -8 26 -17 63 -19 83 -1 8 -5 17 -9 20 -4 3 -9 16 -11
28 -2 12 -8 27 -14 33 -6 6 -9 17 -7 23 3 7 -2 25 -10 41 -8 16 -13 32 -10 37
3 4 1 8 -4 8 -5 0 -13 10 -17 23 -9 27 -8 23 -25 70 -8 20 -18 37 -23 37 -4 0
-6 4 -2 9 3 5 0 15 -7 23 -7 7 -14 20 -16 28 -2 8 -8 18 -14 21 -5 3 -9 9 -8
13 2 10 -24 66 -31 66 -3 0 -11 16 -19 35 -8 19 -17 35 -22 35 -4 0 -8 5 -8
10 0 6 -24 46 -52 88 -29 42 -51 82 -49 87 1 6 -1 7 -5 3 -4 -5 -18 9 -32 29
-26 38 -43 59 -79 99 -13 14 -23 30 -23 35 0 6 -4 7 -10 4 -5 -3 -10 -1 -10 5
0 16 -55 70 -71 70 -7 0 -10 3 -6 6 8 8 -57 74 -73 74 -7 0 -11 3 -7 6 3 4
-10 21 -30 38 -20 17 -47 41 -60 54 -13 12 -26 22 -28 22 -5 0 -37 26 -60 47
-7 7 -15 9 -19 6 -3 -4 -6 -1 -6 5 0 6 -26 28 -57 49 -32 21 -59 41 -61 45 -2
5 -12 8 -23 8 -10 0 -19 5 -19 10 0 6 -11 15 -25 20 -14 5 -25 13 -25 18 0 5
-6 9 -13 9 -6 0 -31 11 -53 26 -23 14 -45 23 -48 20 -3 -4 -6 -1 -6 5 0 7 -7
12 -15 12 -8 0 -15 5 -15 12 0 6 -3 8 -7 5 -3 -4 -21 3 -40 14 -18 11 -33 18
-33 15 0 -3 -15 3 -32 14 -18 11 -41 20 -50 20 -10 0 -18 5 -18 11 0 5 -4 7
-10 4 -5 -3 -10 -2 -10 4 0 6 -7 8 -15 5 -8 -4 -15 -1 -15 7 0 7 -3 10 -6 7
-3 -4 -34 4 -69 17 -35 12 -66 20 -69 17 -3 -3 -6 -1 -6 5 0 5 -7 10 -15 11
-8 1 -22 3 -30 4 -8 1 -15 5 -15 9 0 4 -9 5 -20 2 -11 -3 -20 -1 -20 5 0 6 -9
9 -20 7 -11 -2 -20 0 -20 5 0 4 -11 7 -25 5 -14 -1 -28 2 -31 6 -3 5 -16 9
-30 9 -14 0 -35 5 -46 11 -16 9 -19 8 -13 -2 6 -8 4 -10 -6 -3 -8 4 -21 10
-29 11 -57 10 -94 15 -155 19 -38 3 -76 11 -84 17 -12 10 -13 9 -7 -2 7 -10 3
-11 -15 -5 -13 4 -31 6 -39 5 -15 -1 -40 -1 -123 2 -27 1 -50 1 -51 0z"/>
</g>
</svg>
